<?xml version="1.0" encoding="UTF-8"?>
<svg width="720px" height="619px" viewBox="0 0 720 619" version="1.1" xmlns="http://www.w3.org/2000/svg" xmlns:xlink="http://www.w3.org/1999/xlink">
    <!-- Generator: Sketch 48.2 (47327) - http://www.bohemiancoding.com/sketch -->
    <title>bg-leaves-left</title>
    <desc>Created with Sketch.</desc>
    <defs></defs>
    <g id="homepage-new" stroke="none" stroke-width="1" fill="none" fill-rule="evenodd" transform="translate(0.000000, -1169.000000)" opacity="0.367640399">
        <g id="bg-leaves-left" transform="translate(-25.000000, 1169.000000)">
            <path d="M410,579.117449 L0,361 L0,617.053593 C112.453291,622.985994 207.063071,615.397819 299.140693,593.735567 L410,579.117449" id="Fill-1499" fill="#80A85F"></path>
            <path d="M34,118.686565 C56.9832053,219.750466 99.5232102,233.942641 168.85807,220.935924 C174.274148,185.662585 165.200518,110.017007 34,118.686565" id="Fill-1802" fill="#A4C060"></path>
            <path d="M81.1390575,0 C68.7607549,67.5476891 93.4218274,90.6377527 147.502409,100 C171.61758,43.3425074 134.382591,14.9520736 81.1390575,0" id="Fill-1803" fill="#9FBC50"></path>
            <path d="M231.610042,336.622796 C158.305471,304.555231 81.9971729,255.162174 0,173 L0,363.476123 C119.985207,561.147895 331.433875,627.477746 491,610.436667 L491,608.123441 C344.013116,574.354138 270.012226,462.54191 231.610042,336.622796" id="Fill-2536" fill="#6E9E45"></path>
            <path d="M745,459.545608 C715.742661,269.424224 592.041138,122.377253 193,111 C208.607861,312.19076 261.775697,580.640885 528.999406,615 C353.478144,539.854238 303.457385,345.038908 323.974868,183.275398 C675.777974,199.270812 721.585931,393.366182 745,459.545608" id="Fill-2965" fill="#9DBD4F"></path>
        </g>
    </g>
</svg>