<svg id="svg" version="1.1" width="400" height="39.33209647495362" xmlns="http://www.w3.org/2000/svg" xmlns:xlink="http://www.w3.org/1999/xlink" style="display: block;"><g id="svgg"><path id="path0" d="M49.611 2.111 C 49.550 2.172,49.501 2.303,49.503 2.403 C 49.504 2.521,49.547 2.517,49.628 2.390 C 49.696 2.284,49.976 2.164,50.251 2.123 L 50.750 2.050 50.236 2.025 C 49.953 2.011,49.672 2.050,49.611 2.111 M251.377 23.599 C 251.530 23.752,252.490 23.785,252.396 23.634 C 252.351 23.560,252.081 23.500,251.796 23.500 C 251.511 23.500,251.322 23.545,251.377 23.599 M371.514 35.394 C 371.552 35.427,371.917 35.497,372.325 35.549 C 372.804 35.610,372.981 35.590,372.825 35.491 C 372.602 35.350,371.358 35.258,371.514 35.394 " stroke="none" fill="#000000" fill-rule="evenodd"></path><path id="path1" d="M98.250 17.925 C 94.675 18.041,90.700 18.215,89.417 18.312 C 83.842 18.732,80.306 19.059,76.250 19.527 C 73.867 19.802,71.317 20.093,70.583 20.174 C 69.850 20.255,68.500 20.432,67.583 20.566 C 66.667 20.700,64.867 20.965,63.583 21.154 C 62.300 21.342,60.387 21.651,59.333 21.840 C 58.279 22.029,56.929 22.256,56.333 22.346 C 55.737 22.436,54.313 22.705,53.167 22.943 C 52.021 23.181,50.708 23.436,50.250 23.508 C 47.460 23.949,36.394 26.523,30.667 28.063 C 29.521 28.371,27.833 28.823,26.917 29.068 C 26.000 29.312,24.800 29.654,24.250 29.826 C 23.700 29.999,22.313 30.415,21.167 30.752 C 16.153 32.227,10.295 34.166,4.000 36.435 C -0.272 37.975,0.000 37.831,0.000 38.541 L 0.000 39.167 200.000 39.167 L 400.000 39.167 400.000 37.560 L 400.000 35.953 390.375 36.039 C 380.571 36.125,378.593 36.088,378.759 35.818 C 378.815 35.728,375.851 35.667,371.427 35.667 C 366.587 35.667,364.000 35.609,364.000 35.500 C 364.000 35.396,363.067 35.333,361.533 35.333 C 359.791 35.333,359.001 35.272,358.842 35.125 C 358.663 34.958,358.641 34.958,358.735 35.125 C 358.827 35.287,358.336 35.333,356.510 35.333 C 355.221 35.333,354.167 35.271,354.167 35.194 C 354.167 35.015,354.607 35.029,348.138 35.010 C 343.900 34.998,342.424 34.941,342.110 34.778 C 341.623 34.525,338.400 34.409,338.111 34.634 C 337.856 34.832,330.031 34.604,313.167 33.905 C 309.912 33.770,305.112 33.587,302.500 33.497 C 299.887 33.408,296.362 33.259,294.667 33.166 C 290.085 32.916,281.901 32.510,277.833 32.332 C 275.862 32.246,271.700 32.022,268.583 31.835 C 265.467 31.647,260.967 31.384,258.583 31.249 C 256.200 31.115,252.112 30.850,249.500 30.661 C 246.887 30.472,243.512 30.251,242.000 30.171 C 240.487 30.090,237.900 29.910,236.250 29.771 C 234.600 29.632,231.637 29.399,229.667 29.253 C 224.344 28.858,214.792 28.046,208.750 27.475 C 205.817 27.197,202.629 26.907,201.667 26.829 C 200.154 26.707,197.919 26.474,188.917 25.498 C 186.134 25.197,181.802 24.682,177.500 24.142 C 175.254 23.861,172.854 23.572,172.167 23.501 C 170.892 23.370,166.299 22.730,160.167 21.827 C 158.287 21.551,156.487 21.290,156.167 21.249 C 155.846 21.207,154.346 20.986,152.833 20.759 C 151.321 20.531,149.408 20.272,148.583 20.183 C 147.758 20.095,145.096 19.800,142.667 19.527 C 138.546 19.066,134.620 18.709,129.417 18.323 C 121.821 17.760,108.587 17.591,98.250 17.925 " stroke="none" fill="#ffffff" fill-rule="evenodd"></path><path id="path2" d="M76.125 0.121 C 76.423 0.158,76.910 0.158,77.208 0.121 C 77.506 0.084,77.262 0.053,76.667 0.053 C 76.071 0.053,75.827 0.084,76.125 0.121 M118.292 0.122 C 118.681 0.157,119.319 0.157,119.708 0.122 C 120.098 0.087,119.779 0.058,119.000 0.058 C 118.221 0.058,117.902 0.087,118.292 0.122 M70.167 0.333 L 69.417 0.450 70.417 0.472 C 70.967 0.485,71.529 0.422,71.667 0.333 C 71.959 0.145,71.381 0.145,70.167 0.333 M124.167 0.333 C 124.798 0.536,125.646 0.536,125.333 0.333 C 125.196 0.244,124.783 0.178,124.417 0.186 C 123.838 0.198,123.805 0.218,124.167 0.333 M65.005 0.660 C 64.870 0.745,64.818 0.873,64.889 0.944 C 64.960 1.016,65.071 0.989,65.135 0.885 C 65.199 0.782,65.476 0.664,65.751 0.623 L 66.250 0.550 65.750 0.528 C 65.475 0.515,65.140 0.575,65.005 0.660 M129.083 0.623 C 129.357 0.664,129.635 0.782,129.699 0.885 C 129.763 0.989,129.873 1.016,129.944 0.944 C 130.143 0.746,129.641 0.503,129.083 0.528 L 128.583 0.550 129.083 0.623 M61.000 1.167 C 60.810 1.289,60.881 1.329,61.292 1.331 C 61.590 1.332,61.833 1.258,61.833 1.167 C 61.833 0.955,61.328 0.955,61.000 1.167 M134.083 1.167 C 134.140 1.258,134.407 1.333,134.677 1.333 C 134.946 1.333,135.167 1.258,135.167 1.167 C 135.167 1.075,134.900 1.000,134.573 1.000 C 134.220 1.000,134.022 1.067,134.083 1.167 M57.417 1.500 C 57.358 1.595,57.498 1.667,57.740 1.667 C 57.975 1.667,58.167 1.592,58.167 1.500 C 58.167 1.408,58.021 1.333,57.843 1.333 C 57.665 1.333,57.473 1.408,57.417 1.500 M137.333 1.500 C 137.333 1.592,137.563 1.667,137.843 1.667 C 138.141 1.667,138.310 1.597,138.250 1.500 C 138.193 1.408,137.964 1.333,137.740 1.333 C 137.516 1.333,137.333 1.408,137.333 1.500 M53.750 1.833 C 53.692 1.927,53.828 2.000,54.064 2.000 C 54.293 2.000,54.527 1.925,54.583 1.833 C 54.642 1.739,54.505 1.667,54.270 1.667 C 54.041 1.667,53.807 1.742,53.750 1.833 M140.583 1.833 C 140.640 1.925,140.874 2.000,141.103 2.000 C 141.338 2.000,141.475 1.927,141.417 1.833 C 141.360 1.742,141.126 1.667,140.897 1.667 C 140.662 1.667,140.525 1.739,140.583 1.833 M50.208 2.121 C 49.910 2.158,49.667 2.258,49.667 2.344 C 49.667 2.544,51.049 2.549,51.258 2.350 C 51.345 2.267,51.567 2.163,51.750 2.119 C 52.147 2.023,50.981 2.025,50.208 2.121 M143.365 2.222 C 143.547 2.404,143.918 2.500,144.438 2.500 C 145.501 2.500,145.195 2.194,143.989 2.051 C 143.147 1.951,143.105 1.963,143.365 2.222 M47.083 2.667 C 47.025 2.761,47.165 2.833,47.407 2.833 C 47.641 2.833,47.833 2.758,47.833 2.667 C 47.833 2.575,47.688 2.500,47.510 2.500 C 47.332 2.500,47.140 2.575,47.083 2.667 M146.917 2.667 C 146.973 2.758,147.132 2.833,147.270 2.833 C 147.407 2.833,147.473 2.758,147.417 2.667 C 147.360 2.575,147.201 2.500,147.064 2.500 C 146.926 2.500,146.860 2.575,146.917 2.667 M149.667 3.000 C 149.667 3.092,149.821 3.167,150.010 3.167 C 150.199 3.167,150.307 3.092,150.250 3.000 C 150.193 2.908,150.039 2.833,149.907 2.833 C 149.775 2.833,149.667 2.908,149.667 3.000 M38.917 3.667 C 38.860 3.758,38.926 3.833,39.064 3.833 C 39.201 3.833,39.360 3.758,39.417 3.667 C 39.473 3.575,39.407 3.500,39.270 3.500 C 39.132 3.500,38.973 3.575,38.917 3.667 M154.833 3.667 C 154.833 3.758,154.988 3.833,155.177 3.833 C 155.365 3.833,155.473 3.758,155.417 3.667 C 155.360 3.575,155.206 3.500,155.073 3.500 C 154.941 3.500,154.833 3.575,154.833 3.667 M36.542 3.944 C 36.222 4.073,36.294 4.333,36.649 4.333 C 36.822 4.333,37.008 4.221,37.060 4.083 C 37.155 3.835,36.948 3.780,36.542 3.944 M157.038 4.061 C 157.187 4.211,157.442 4.333,157.605 4.333 C 157.982 4.333,157.722 4.080,157.174 3.913 C 156.796 3.799,156.786 3.810,157.038 4.061 M33.917 4.500 C 33.860 4.592,33.964 4.667,34.147 4.667 C 34.330 4.667,34.527 4.592,34.583 4.500 C 34.640 4.408,34.536 4.333,34.353 4.333 C 34.170 4.333,33.973 4.408,33.917 4.500 M159.333 4.500 C 159.333 4.592,159.600 4.667,159.927 4.667 C 160.280 4.667,160.478 4.599,160.417 4.500 C 160.360 4.408,160.093 4.333,159.823 4.333 C 159.554 4.333,159.333 4.408,159.333 4.500 M30.750 4.833 C 30.693 4.925,30.797 5.000,30.980 5.000 C 31.164 5.000,31.360 4.925,31.417 4.833 C 31.473 4.742,31.370 4.667,31.186 4.667 C 31.003 4.667,30.807 4.742,30.750 4.833 M161.917 4.833 C 161.973 4.925,162.170 5.000,162.353 5.000 C 162.536 5.000,162.640 4.925,162.583 4.833 C 162.527 4.742,162.330 4.667,162.147 4.667 C 161.964 4.667,161.860 4.742,161.917 4.833 M29.000 5.167 C 28.797 5.298,28.818 5.329,29.115 5.331 C 29.316 5.332,29.527 5.258,29.583 5.167 C 29.714 4.954,29.328 4.954,29.000 5.167 M26.278 5.444 C 26.066 5.656,26.168 5.833,26.500 5.833 C 26.683 5.833,26.833 5.764,26.833 5.679 C 26.833 5.594,26.965 5.490,27.125 5.448 C 27.285 5.406,27.185 5.363,26.903 5.353 C 26.620 5.342,26.339 5.383,26.278 5.444 M165.560 5.583 C 165.697 5.721,166.021 5.831,166.280 5.828 C 166.729 5.823,166.736 5.812,166.426 5.578 C 165.966 5.230,165.211 5.234,165.560 5.583 M20.500 6.667 C 20.297 6.798,20.318 6.829,20.615 6.831 C 20.816 6.832,21.027 6.758,21.083 6.667 C 21.214 6.454,20.828 6.454,20.500 6.667 M171.417 6.667 C 171.473 6.758,171.707 6.833,171.936 6.833 C 172.172 6.833,172.308 6.761,172.250 6.667 C 172.193 6.575,171.959 6.500,171.730 6.500 C 171.495 6.500,171.358 6.573,171.417 6.667 M16.708 7.277 C 16.454 7.380,16.432 7.667,16.679 7.667 C 16.777 7.667,16.970 7.554,17.107 7.417 C 17.366 7.158,17.172 7.090,16.708 7.277 M175.246 7.437 C 175.394 7.585,175.566 7.656,175.628 7.594 C 175.690 7.532,175.630 7.412,175.495 7.327 C 175.101 7.078,174.953 7.143,175.246 7.437 M181.833 8.833 C 182.432 9.025,182.702 9.025,182.583 8.833 C 182.527 8.742,182.241 8.674,181.948 8.683 C 181.441 8.699,181.435 8.706,181.833 8.833 M7.083 9.119 C 6.900 9.163,6.679 9.267,6.592 9.350 C 6.335 9.593,6.911 9.527,7.439 9.251 C 7.904 9.009,7.761 8.956,7.083 9.119 M186.000 10.000 C 186.000 10.092,186.150 10.167,186.333 10.167 C 186.517 10.167,186.667 10.092,186.667 10.000 C 186.667 9.908,186.517 9.833,186.333 9.833 C 186.150 9.833,186.000 9.908,186.000 10.000 M190.583 11.167 C 190.527 11.258,190.635 11.333,190.823 11.333 C 191.012 11.333,191.167 11.258,191.167 11.167 C 191.167 11.075,191.059 11.000,190.927 11.000 C 190.794 11.000,190.640 11.075,190.583 11.167 M195.000 12.167 C 195.328 12.379,195.714 12.379,195.583 12.167 C 195.527 12.075,195.316 12.001,195.115 12.003 C 194.818 12.005,194.797 12.035,195.000 12.167 M196.500 12.583 C 197.045 12.895,197.341 12.891,196.926 12.578 C 196.749 12.443,196.486 12.336,196.343 12.339 C 196.177 12.343,196.233 12.431,196.500 12.583 M199.583 13.333 C 199.640 13.425,199.799 13.500,199.936 13.500 C 200.074 13.500,200.140 13.425,200.083 13.333 C 200.027 13.242,199.868 13.167,199.730 13.167 C 199.593 13.167,199.527 13.242,199.583 13.333 M203.979 14.385 C 204.229 14.693,204.667 14.766,204.667 14.500 C 204.667 14.408,204.598 14.333,204.514 14.333 C 204.429 14.333,204.223 14.282,204.055 14.219 C 203.787 14.118,203.777 14.138,203.979 14.385 M208.583 15.500 C 208.640 15.592,208.851 15.666,209.052 15.664 C 209.348 15.662,209.370 15.631,209.167 15.500 C 208.838 15.288,208.452 15.288,208.583 15.500 M210.440 15.917 C 210.492 16.054,210.687 16.167,210.872 16.167 C 211.151 16.167,211.173 16.125,211.000 15.917 C 210.886 15.779,210.692 15.667,210.568 15.667 C 210.437 15.667,210.384 15.771,210.440 15.917 M213.833 16.667 C 213.833 16.758,213.988 16.833,214.177 16.833 C 214.365 16.833,214.473 16.758,214.417 16.667 C 214.360 16.575,214.206 16.500,214.073 16.500 C 213.941 16.500,213.833 16.575,213.833 16.667 M218.796 17.761 C 219.097 17.918,219.391 17.998,219.449 17.940 C 219.612 17.776,219.446 17.679,218.821 17.573 L 218.250 17.476 218.796 17.761 M224.083 18.833 C 224.140 18.925,224.388 18.999,224.635 18.997 C 224.986 18.995,225.029 18.960,224.833 18.833 C 224.504 18.621,223.952 18.621,224.083 18.833 M226.226 19.250 C 226.364 19.387,226.557 19.500,226.655 19.500 C 226.928 19.500,226.867 19.215,226.570 19.101 C 226.114 18.926,225.967 18.990,226.226 19.250 M235.708 20.948 C 235.869 20.990,236.000 21.094,236.000 21.179 C 236.000 21.264,236.131 21.331,236.292 21.328 C 236.556 21.323,236.553 21.299,236.260 21.078 C 236.082 20.943,235.819 20.842,235.676 20.853 C 235.475 20.868,235.482 20.889,235.708 20.948 M239.833 21.833 C 239.833 21.925,239.988 22.000,240.177 22.000 C 240.365 22.000,240.473 21.925,240.417 21.833 C 240.360 21.742,240.206 21.667,240.073 21.667 C 239.941 21.667,239.833 21.742,239.833 21.833 M241.750 22.167 C 241.691 22.263,241.845 22.332,242.115 22.331 C 242.479 22.329,242.527 22.292,242.333 22.167 C 242.013 21.960,241.878 21.960,241.750 22.167 M244.000 22.500 C 244.137 22.589,244.362 22.662,244.500 22.662 C 244.722 22.662,244.722 22.644,244.500 22.500 C 244.362 22.411,244.137 22.338,244.000 22.338 C 243.778 22.338,243.778 22.356,244.000 22.500 M246.060 22.917 C 246.332 23.189,246.833 23.256,246.833 23.019 C 246.833 22.938,246.665 22.827,246.458 22.772 C 245.875 22.615,245.789 22.646,246.060 22.917 M248.250 23.333 C 248.307 23.425,248.499 23.500,248.677 23.500 C 248.854 23.500,249.000 23.425,249.000 23.333 C 249.000 23.242,248.808 23.167,248.573 23.167 C 248.332 23.167,248.192 23.239,248.250 23.333 M250.833 23.667 C 250.833 23.758,251.040 23.832,251.292 23.831 C 251.649 23.829,251.695 23.793,251.500 23.667 C 251.174 23.456,250.833 23.456,250.833 23.667 M255.500 24.231 C 255.500 24.372,256.348 24.445,256.430 24.311 C 256.480 24.232,256.290 24.167,256.010 24.167 C 255.729 24.167,255.500 24.195,255.500 24.231 M258.417 24.833 C 258.473 24.925,258.745 25.000,259.020 25.000 C 259.311 25.000,259.477 24.930,259.417 24.833 C 259.360 24.742,259.089 24.667,258.814 24.667 C 258.523 24.667,258.357 24.736,258.417 24.833 M262.583 25.500 C 262.640 25.592,262.911 25.667,263.186 25.667 C 263.477 25.667,263.643 25.597,263.583 25.500 C 263.527 25.408,263.255 25.333,262.980 25.333 C 262.689 25.333,262.523 25.403,262.583 25.500 M267.708 26.115 C 267.869 26.157,268.000 26.261,268.000 26.346 C 268.000 26.430,268.131 26.498,268.292 26.495 C 268.556 26.490,268.553 26.466,268.260 26.245 C 268.082 26.110,267.819 26.009,267.676 26.019 C 267.475 26.034,267.482 26.056,267.708 26.115 M270.250 26.667 C 270.307 26.758,270.499 26.833,270.677 26.833 C 270.854 26.833,271.000 26.758,271.000 26.667 C 271.000 26.575,270.808 26.500,270.573 26.500 C 270.332 26.500,270.192 26.572,270.250 26.667 M275.167 27.333 C 275.167 27.425,275.335 27.499,275.542 27.497 C 275.845 27.495,275.869 27.464,275.667 27.333 C 275.344 27.125,275.167 27.125,275.167 27.333 M277.599 27.730 C 277.713 28.028,278.833 28.122,278.833 27.833 C 278.833 27.742,278.702 27.666,278.542 27.664 C 278.381 27.663,278.080 27.617,277.873 27.561 C 277.572 27.481,277.516 27.515,277.599 27.730 M280.750 28.167 C 280.807 28.258,280.961 28.333,281.093 28.333 C 281.225 28.333,281.333 28.258,281.333 28.167 C 281.333 28.075,281.179 28.000,280.990 28.000 C 280.801 28.000,280.693 28.075,280.750 28.167 M283.667 28.500 C 283.667 28.592,283.817 28.667,284.000 28.667 C 284.183 28.667,284.333 28.592,284.333 28.500 C 284.333 28.408,284.183 28.333,284.000 28.333 C 283.817 28.333,283.667 28.408,283.667 28.500 M286.250 28.833 C 286.307 28.925,286.630 28.995,286.968 28.988 C 287.464 28.979,287.519 28.949,287.250 28.833 C 286.782 28.632,286.126 28.632,286.250 28.833 M289.667 29.167 C 289.996 29.379,290.548 29.379,290.417 29.167 C 290.360 29.075,290.112 29.001,289.865 29.003 C 289.514 29.005,289.471 29.040,289.667 29.167 M292.726 29.583 C 292.864 29.721,293.057 29.833,293.155 29.833 C 293.428 29.833,293.367 29.549,293.070 29.434 C 292.614 29.260,292.467 29.324,292.726 29.583 M295.833 30.000 C 295.833 30.092,296.100 30.167,296.427 30.167 C 296.780 30.167,296.978 30.099,296.917 30.000 C 296.860 29.908,296.593 29.833,296.323 29.833 C 296.054 29.833,295.833 29.908,295.833 30.000 M299.333 30.333 C 299.333 30.425,299.525 30.500,299.760 30.500 C 300.002 30.500,300.142 30.428,300.083 30.333 C 300.027 30.242,299.835 30.167,299.657 30.167 C 299.479 30.167,299.333 30.242,299.333 30.333 M303.000 30.667 C 303.000 30.758,303.154 30.833,303.343 30.833 C 303.532 30.833,303.640 30.758,303.583 30.667 C 303.527 30.575,303.372 30.500,303.240 30.500 C 303.108 30.500,303.000 30.575,303.000 30.667 M306.250 31.000 C 306.525 31.070,307.050 31.127,307.417 31.126 L 308.083 31.125 307.333 30.991 C 306.315 30.810,305.529 30.817,306.250 31.000 M310.458 31.286 C 310.573 31.326,310.667 31.427,310.667 31.512 C 310.667 31.597,310.817 31.667,311.000 31.667 C 311.183 31.667,311.333 31.592,311.333 31.500 C 311.333 31.408,311.240 31.332,311.125 31.331 C 311.010 31.330,310.767 31.303,310.583 31.272 C 310.400 31.240,310.344 31.247,310.458 31.286 M314.000 31.833 C 314.000 31.925,314.150 32.000,314.333 32.000 C 314.517 32.000,314.667 31.925,314.667 31.833 C 314.667 31.742,314.517 31.667,314.333 31.667 C 314.150 31.667,314.000 31.742,314.000 31.833 M317.667 32.167 C 317.667 32.258,317.934 32.333,318.260 32.333 C 318.613 32.333,318.811 32.266,318.750 32.167 C 318.693 32.075,318.426 32.000,318.157 32.000 C 317.887 32.000,317.667 32.075,317.667 32.167 M322.167 32.500 C 322.304 32.589,322.642 32.662,322.917 32.662 C 323.300 32.662,323.358 32.624,323.167 32.500 C 323.029 32.411,322.692 32.338,322.417 32.338 C 322.033 32.338,321.975 32.376,322.167 32.500 M326.593 32.911 C 327.047 33.255,327.617 33.259,327.333 32.917 C 327.219 32.779,326.933 32.667,326.698 32.667 C 326.286 32.667,326.282 32.676,326.593 32.911 M330.833 33.333 C 330.833 33.425,331.175 33.500,331.593 33.500 C 332.057 33.500,332.313 33.435,332.250 33.333 C 332.193 33.242,331.851 33.167,331.490 33.167 C 331.129 33.167,330.833 33.242,330.833 33.333 M336.333 33.667 C 336.333 33.758,336.600 33.833,336.927 33.833 C 337.280 33.833,337.478 33.766,337.417 33.667 C 337.360 33.575,337.093 33.500,336.823 33.500 C 336.554 33.500,336.333 33.575,336.333 33.667 M388.667 35.731 C 388.667 35.767,388.888 35.828,389.158 35.868 C 389.428 35.907,389.611 35.878,389.565 35.803 C 389.482 35.670,388.667 35.604,388.667 35.731 " stroke="none" fill="#333300" fill-rule="evenodd"></path><path id="path3" d="M74.750 0.175 C 73.100 0.234,71.563 0.328,71.333 0.385 C 71.104 0.442,69.645 0.517,68.091 0.553 C 66.172 0.598,65.246 0.680,65.202 0.809 C 65.160 0.935,64.578 1.000,63.486 1.000 C 62.495 1.000,61.833 1.067,61.833 1.167 C 61.833 1.268,61.111 1.333,60.000 1.333 C 58.889 1.333,58.167 1.399,58.167 1.500 C 58.167 1.600,57.483 1.667,56.450 1.667 C 55.506 1.667,54.662 1.733,54.575 1.815 C 54.488 1.897,53.759 1.996,52.955 2.035 C 52.151 2.075,51.404 2.196,51.296 2.304 C 51.172 2.428,50.498 2.500,49.467 2.500 C 48.489 2.500,47.833 2.567,47.833 2.667 C 47.833 2.768,47.114 2.833,46.010 2.833 C 44.974 2.833,44.142 2.905,44.083 3.000 C 44.027 3.092,43.616 3.167,43.171 3.167 C 42.698 3.167,42.334 3.248,42.296 3.363 C 42.254 3.489,42.145 3.506,41.990 3.409 C 41.673 3.212,41.011 3.181,40.901 3.359 C 40.853 3.436,40.523 3.500,40.167 3.500 C 39.811 3.500,39.473 3.575,39.417 3.667 C 39.360 3.758,38.828 3.833,38.235 3.833 C 37.430 3.833,37.132 3.897,37.060 4.083 C 36.988 4.272,36.684 4.333,35.825 4.333 C 35.199 4.333,34.640 4.408,34.583 4.500 C 34.527 4.592,33.814 4.667,33.000 4.667 C 32.186 4.667,31.473 4.742,31.417 4.833 C 31.360 4.925,30.958 5.000,30.523 5.000 C 30.089 5.000,29.662 5.067,29.575 5.150 C 29.488 5.232,28.859 5.329,28.178 5.365 C 27.411 5.406,26.914 5.508,26.873 5.632 C 26.831 5.756,26.460 5.833,25.903 5.833 C 25.406 5.833,25.000 5.902,25.000 5.986 C 25.000 6.070,24.494 6.178,23.875 6.226 C 22.249 6.352,21.273 6.513,21.092 6.684 C 21.005 6.766,20.503 6.833,19.977 6.833 C 19.450 6.833,18.973 6.908,18.917 7.000 C 18.860 7.092,18.486 7.167,18.085 7.167 C 17.660 7.167,17.253 7.271,17.107 7.417 C 16.936 7.588,16.513 7.667,15.762 7.667 C 15.143 7.667,14.667 7.739,14.667 7.833 C 14.667 7.929,14.167 8.000,13.500 8.000 C 12.833 8.000,12.333 8.071,12.333 8.167 C 12.333 8.258,12.075 8.333,11.760 8.333 C 11.444 8.333,11.140 8.408,11.083 8.500 C 11.027 8.592,10.568 8.667,10.063 8.667 C 9.183 8.667,7.590 9.059,7.258 9.357 C 7.171 9.436,6.740 9.500,6.300 9.500 C 5.860 9.500,5.500 9.575,5.500 9.667 C 5.500 9.758,5.162 9.833,4.750 9.833 C 4.337 9.833,4.000 9.901,4.000 9.984 C 4.000 10.067,3.644 10.176,3.208 10.227 C 1.523 10.425,1.006 10.542,0.819 10.767 C 0.713 10.895,0.485 11.000,0.313 11.000 C 0.009 11.000,0.000 11.403,0.000 24.436 C 0.000 37.155,0.016 37.868,0.292 37.785 C 0.452 37.737,1.521 37.345,2.667 36.915 C 3.813 36.484,5.162 35.995,5.667 35.827 C 6.171 35.660,7.783 35.097,9.250 34.577 C 10.717 34.057,12.142 33.574,12.417 33.504 C 12.692 33.433,13.629 33.139,14.500 32.849 C 17.002 32.016,18.921 31.413,21.167 30.752 C 22.313 30.415,23.700 29.999,24.250 29.826 C 24.800 29.654,26.000 29.312,26.917 29.068 C 27.833 28.823,29.521 28.371,30.667 28.063 C 36.394 26.523,47.460 23.949,50.250 23.508 C 50.708 23.436,52.021 23.181,53.167 22.943 C 54.313 22.705,55.737 22.436,56.333 22.346 C 56.929 22.256,58.279 22.029,59.333 21.840 C 60.387 21.651,62.300 21.342,63.583 21.154 C 64.867 20.965,66.667 20.700,67.583 20.566 C 68.500 20.432,69.850 20.255,70.583 20.174 C 71.317 20.093,73.867 19.802,76.250 19.527 C 94.543 17.416,115.752 17.138,134.917 18.759 C 143.092 19.450,148.338 20.088,160.250 21.840 C 166.332 22.734,170.901 23.371,172.167 23.501 C 172.854 23.572,175.254 23.861,177.500 24.142 C 181.802 24.682,186.134 25.197,188.917 25.498 C 197.919 26.474,200.154 26.707,201.667 26.829 C 202.629 26.907,205.817 27.197,208.750 27.475 C 214.792 28.046,224.344 28.858,229.667 29.253 C 231.637 29.399,234.600 29.632,236.250 29.771 C 237.900 29.910,240.487 30.090,242.000 30.171 C 243.512 30.251,246.887 30.472,249.500 30.661 C 252.112 30.850,256.200 31.115,258.583 31.249 C 260.967 31.384,265.467 31.647,268.583 31.835 C 271.700 32.022,275.862 32.246,277.833 32.332 C 281.901 32.510,290.085 32.916,294.667 33.166 C 296.362 33.259,299.887 33.408,302.500 33.497 C 305.112 33.587,309.912 33.770,313.167 33.905 C 327.105 34.482,337.831 34.832,338.042 34.716 C 338.623 34.395,338.120 33.833,337.250 33.833 C 336.746 33.833,336.333 33.758,336.333 33.667 C 336.333 33.562,335.306 33.500,333.583 33.500 C 331.861 33.500,330.833 33.438,330.833 33.333 C 330.833 33.232,330.067 33.167,328.867 33.167 C 327.515 33.167,326.835 33.101,326.692 32.958 C 326.484 32.749,324.448 32.583,319.875 32.403 C 318.660 32.355,317.667 32.244,317.667 32.158 C 317.667 32.068,316.875 32.000,315.833 32.000 C 314.722 32.000,314.000 31.934,314.000 31.833 C 314.000 31.733,313.338 31.667,312.347 31.667 C 311.183 31.667,310.674 31.606,310.626 31.461 C 310.579 31.320,309.870 31.214,308.404 31.128 C 303.705 30.852,303.000 30.789,303.000 30.647 C 303.000 30.566,302.175 30.500,301.167 30.500 C 300.056 30.500,299.333 30.434,299.333 30.333 C 299.333 30.233,298.639 30.167,297.583 30.167 C 296.528 30.167,295.833 30.101,295.833 30.000 C 295.833 29.901,295.227 29.833,294.347 29.833 C 293.306 29.833,292.840 29.771,292.792 29.625 C 292.722 29.414,291.283 29.246,288.000 29.065 C 287.129 29.017,286.345 28.908,286.258 28.822 C 286.171 28.737,285.553 28.667,284.883 28.667 C 284.183 28.667,283.667 28.596,283.667 28.500 C 283.667 28.402,283.087 28.333,282.260 28.333 C 281.486 28.333,280.807 28.258,280.750 28.167 C 280.693 28.075,279.984 28.000,279.175 28.000 C 278.020 28.000,277.682 27.946,277.606 27.750 C 277.534 27.561,277.227 27.500,276.339 27.500 C 275.668 27.500,275.167 27.429,275.167 27.333 C 275.167 27.242,274.754 27.167,274.250 27.167 C 273.746 27.167,273.333 27.092,273.333 27.000 C 273.333 26.901,272.726 26.833,271.843 26.833 C 271.024 26.833,270.307 26.758,270.250 26.667 C 270.193 26.575,269.670 26.500,269.087 26.500 C 268.444 26.500,268.003 26.426,267.965 26.310 C 267.928 26.201,267.373 26.087,266.659 26.042 C 265.976 25.998,265.392 25.896,265.361 25.815 C 265.331 25.733,264.716 25.667,263.996 25.667 C 263.276 25.667,262.640 25.592,262.583 25.500 C 262.527 25.408,262.072 25.333,261.573 25.333 C 261.075 25.333,260.667 25.258,260.667 25.167 C 260.667 25.073,260.198 25.000,259.593 25.000 C 259.003 25.000,258.473 24.925,258.417 24.833 C 258.360 24.742,257.906 24.667,257.407 24.667 C 256.908 24.667,256.500 24.604,256.500 24.528 C 256.500 24.451,256.406 24.381,256.292 24.370 C 256.177 24.360,255.483 24.267,254.750 24.163 C 254.017 24.059,252.835 23.937,252.125 23.891 C 251.415 23.845,250.833 23.739,250.833 23.654 C 250.833 23.569,250.275 23.500,249.593 23.500 C 248.911 23.500,248.307 23.425,248.250 23.333 C 248.193 23.242,247.708 23.167,247.171 23.167 C 246.562 23.167,246.169 23.092,246.128 22.967 C 246.060 22.764,244.795 22.546,242.790 22.392 C 242.170 22.345,241.706 22.237,241.758 22.153 C 241.812 22.067,241.414 22.000,240.843 22.000 C 240.281 22.000,239.833 21.926,239.833 21.833 C 239.833 21.742,239.421 21.667,238.917 21.667 C 238.412 21.667,238.000 21.592,238.000 21.500 C 238.000 21.407,237.556 21.333,237.000 21.333 C 236.450 21.333,236.000 21.262,236.000 21.174 C 236.000 21.087,235.719 20.970,235.375 20.915 C 235.031 20.860,234.620 20.744,234.461 20.658 C 234.301 20.571,233.758 20.500,233.252 20.500 C 232.747 20.500,232.333 20.433,232.333 20.351 C 232.333 20.171,231.365 20.007,229.625 19.893 C 228.915 19.846,228.333 19.739,228.333 19.654 C 228.333 19.569,227.915 19.500,227.405 19.500 C 226.802 19.500,226.389 19.412,226.226 19.250 C 226.066 19.090,225.655 19.000,225.081 19.000 C 224.589 19.000,224.140 18.925,224.083 18.833 C 224.027 18.742,223.685 18.667,223.323 18.667 C 222.962 18.667,222.667 18.592,222.667 18.500 C 222.667 18.408,222.296 18.333,221.843 18.333 C 221.390 18.333,220.973 18.258,220.917 18.167 C 220.860 18.075,220.452 18.000,220.009 18.000 C 219.567 18.000,218.990 17.888,218.727 17.751 C 218.465 17.614,218.048 17.502,217.802 17.501 C 217.555 17.500,217.307 17.425,217.250 17.333 C 217.193 17.242,216.814 17.167,216.407 17.167 C 216.000 17.167,215.667 17.092,215.667 17.000 C 215.667 16.908,215.254 16.833,214.750 16.833 C 214.246 16.833,213.833 16.758,213.833 16.667 C 213.833 16.575,213.496 16.500,213.083 16.500 C 212.671 16.500,212.333 16.425,212.333 16.333 C 212.333 16.242,211.929 16.167,211.434 16.167 C 210.789 16.167,210.509 16.096,210.440 15.917 C 210.372 15.741,210.098 15.667,209.515 15.667 C 209.059 15.667,208.640 15.592,208.583 15.500 C 208.527 15.408,208.260 15.333,207.990 15.333 C 207.721 15.333,207.500 15.258,207.500 15.167 C 207.500 15.075,207.162 15.000,206.750 15.000 C 206.338 15.000,206.000 14.925,206.000 14.833 C 206.000 14.742,205.597 14.667,205.104 14.667 C 204.510 14.667,204.137 14.582,204.000 14.417 C 203.886 14.279,203.539 14.167,203.230 14.167 C 202.920 14.167,202.667 14.092,202.667 14.000 C 202.667 13.908,202.329 13.833,201.917 13.833 C 201.504 13.833,201.167 13.758,201.167 13.667 C 201.167 13.575,200.834 13.500,200.427 13.500 C 200.019 13.500,199.640 13.425,199.583 13.333 C 199.527 13.242,199.143 13.167,198.730 13.167 C 198.273 13.167,198.020 13.102,198.083 13.000 C 198.145 12.901,197.943 12.833,197.582 12.833 C 197.250 12.833,196.814 12.745,196.614 12.637 C 196.276 12.456,195.874 12.345,194.583 12.078 C 194.308 12.021,193.933 11.910,193.750 11.831 C 193.404 11.682,192.649 11.547,191.292 11.392 C 190.856 11.342,190.542 11.233,190.593 11.151 C 190.644 11.068,190.388 11.000,190.024 11.000 C 189.659 11.000,189.333 10.915,189.298 10.812 C 189.234 10.619,188.190 10.373,186.792 10.221 C 186.356 10.173,186.000 10.067,186.000 9.984 C 186.000 9.901,185.737 9.833,185.417 9.833 C 185.096 9.833,184.833 9.758,184.833 9.667 C 184.833 9.575,184.540 9.500,184.181 9.500 C 183.822 9.500,183.502 9.422,183.470 9.327 C 183.408 9.141,181.372 8.667,180.635 8.667 C 180.388 8.667,180.140 8.592,180.083 8.500 C 180.027 8.408,179.685 8.333,179.323 8.333 C 178.962 8.333,178.667 8.258,178.667 8.167 C 178.667 8.075,178.334 8.000,177.927 8.000 C 177.519 8.000,177.140 7.925,177.083 7.833 C 177.027 7.742,176.642 7.667,176.228 7.667 C 175.782 7.667,175.375 7.565,175.226 7.417 C 175.089 7.279,174.686 7.167,174.331 7.167 C 173.977 7.167,173.640 7.092,173.583 7.000 C 173.527 6.908,173.039 6.833,172.500 6.833 C 171.961 6.833,171.473 6.758,171.417 6.667 C 171.360 6.575,170.943 6.500,170.490 6.500 C 170.037 6.500,169.667 6.425,169.667 6.333 C 169.667 6.242,169.254 6.167,168.750 6.167 C 168.246 6.167,167.833 6.092,167.833 6.000 C 167.833 5.907,167.385 5.833,166.821 5.833 C 166.144 5.833,165.727 5.751,165.560 5.583 C 165.413 5.436,165.005 5.333,164.571 5.333 C 164.165 5.333,163.833 5.258,163.833 5.167 C 163.833 5.075,163.425 5.000,162.927 5.000 C 162.428 5.000,161.973 4.925,161.917 4.833 C 161.860 4.742,161.256 4.667,160.573 4.667 C 159.858 4.667,159.333 4.596,159.333 4.500 C 159.333 4.407,158.885 4.333,158.321 4.333 C 157.644 4.333,157.227 4.251,157.060 4.083 C 156.894 3.917,156.478 3.833,155.821 3.833 C 155.278 3.833,154.833 3.765,154.833 3.682 C 154.833 3.508,153.625 3.354,151.292 3.231 C 150.398 3.183,149.667 3.075,149.667 2.989 C 149.667 2.903,149.071 2.833,148.343 2.833 C 147.615 2.833,146.973 2.758,146.917 2.667 C 146.860 2.574,146.105 2.500,145.228 2.500 C 144.041 2.500,143.580 2.437,143.393 2.250 C 143.216 2.073,142.784 2.000,141.915 2.000 C 141.239 2.000,140.640 1.925,140.583 1.833 C 140.526 1.741,139.776 1.667,138.907 1.667 C 137.969 1.667,137.333 1.599,137.333 1.500 C 137.333 1.401,136.698 1.333,135.760 1.333 C 134.891 1.333,134.140 1.259,134.083 1.167 C 134.023 1.070,133.086 1.000,131.837 1.000 C 130.379 1.000,129.674 0.939,129.631 0.810 C 129.564 0.608,127.077 0.438,120.417 0.179 C 116.233 0.017,79.295 0.014,74.750 0.175 M342.096 34.771 C 342.413 34.935,343.203 34.997,344.894 34.989 C 346.634 34.982,347.141 34.935,346.834 34.813 C 346.605 34.722,346.153 34.666,345.829 34.690 C 345.506 34.713,345.168 34.688,345.079 34.635 C 344.990 34.581,344.183 34.538,343.286 34.540 C 341.798 34.541,341.693 34.562,342.096 34.771 M354.167 35.167 C 354.167 35.270,355.068 35.332,356.542 35.331 C 358.137 35.329,358.835 35.275,358.667 35.167 C 358.329 34.949,354.167 34.949,354.167 35.167 M364.000 35.490 C 364.000 35.609,365.206 35.663,367.708 35.655 C 369.748 35.649,371.267 35.584,371.083 35.512 C 370.551 35.303,364.000 35.283,364.000 35.490 M378.759 35.818 C 378.627 36.032,380.162 36.113,384.500 36.123 C 388.512 36.132,390.004 36.034,389.083 35.822 C 388.323 35.646,378.868 35.643,378.759 35.818 " stroke="none" fill="#96bc5e" fill-rule="evenodd"></path><path id="path4" d="" stroke="none" fill="#55ff55" fill-rule="evenodd"></path></g></svg>