<svg width="720" height="619" xmlns="http://www.w3.org/2000/svg"><g fill="none" fill-rule="evenodd" opacity=".368"><path d="M385 579.117L-25 361v256.054c112.453 5.932 207.063-1.656 299.14-23.318L385 579.117" fill="#80A85F"/><path d="M9 118.687C31.983 219.75 74.523 233.943 143.858 220.936c5.416-35.273-3.657-110.919-134.858-102.25" fill="#A4C060"/><path d="M56.14 0c-12.38 67.548 12.282 90.638 66.362 100 24.116-56.657-13.12-85.048-66.363-100" fill="#9FBC50"/><path d="M206.61 336.623C133.305 304.555 56.997 255.163-25 173v190.476c119.985 197.672 331.434 264.002 491 246.96v-2.313c-146.987-33.769-220.988-145.581-259.39-271.5" fill="#6E9E45"/><path d="M720 459.546C690.743 269.424 567.041 122.377 168 111c15.608 201.19 68.776 469.64 336 504-175.522-75.146-225.543-269.961-205.025-431.725C650.778 199.271 696.585 393.366 720 459.545" fill="#9DBD4F"/></g></svg>