<svg width="400" height="39.332" xmlns="http://www.w3.org/2000/svg" display="block"><g fill-rule="evenodd"><path d="M49.611 2.111a.458.458 0 0 0-.108.292c.001.118.044.114.125-.013.068-.106.348-.226.623-.267l.499-.073-.514-.025c-.283-.014-.564.025-.625.086m201.766 21.488c.153.153 1.113.186 1.019.035-.045-.074-.315-.134-.6-.134s-.474.045-.419.099m120.137 11.795c.038.033.403.103.811.155.479.061.656.041.5-.058-.223-.141-1.467-.233-1.311-.097"/><path d="M98.25 17.925c-3.575.116-7.55.29-8.833.387-5.575.42-9.111.747-13.167 1.215-2.383.275-4.933.566-5.667.647-.733.081-2.083.258-3 .392l-4 .588c-1.283.188-3.196.497-4.25.686-1.054.189-2.404.416-3 .506-.596.09-2.02.359-3.166.597a88.643 88.643 0 0 1-2.917.565c-2.79.441-13.856 3.015-19.583 4.555l-3.75 1.005c-.917.244-2.117.586-2.667.758-.55.173-1.937.589-3.083.926C16.153 32.227 10.295 34.166 4 36.435c-4.272 1.54-4 1.396-4 2.106v.626h400v-3.214l-9.625.086c-9.804.086-11.782.049-11.616-.221.056-.09-2.908-.151-7.332-.151-4.84 0-7.427-.058-7.427-.167 0-.104-.933-.167-2.467-.167-1.742 0-2.532-.061-2.691-.208-.179-.167-.201-.167-.107 0 .092.162-.399.208-2.225.208-1.289 0-2.343-.062-2.343-.139 0-.179.44-.165-6.029-.184-4.238-.012-5.714-.069-6.028-.232-.487-.253-3.71-.369-3.999-.144-.255.198-8.08-.03-24.944-.729a1858.95 1858.95 0 0 0-10.667-.408 475.54 475.54 0 0 1-7.833-.331 2036.3 2036.3 0 0 0-16.834-.834c-1.971-.086-6.133-.31-9.25-.497a3305.76 3305.76 0 0 0-10-.586 688.57 688.57 0 0 1-9.083-.588c-2.613-.189-5.988-.41-7.5-.49-1.513-.081-4.1-.261-5.75-.4-1.65-.139-4.613-.372-6.583-.518a1282.396 1282.396 0 0 1-20.917-1.778 800.207 800.207 0 0 0-7.083-.646c-1.513-.122-3.748-.355-12.75-1.331a749.757 749.757 0 0 1-11.417-1.356c-2.246-.281-4.646-.57-5.333-.641-1.275-.131-5.868-.771-12-1.674a525.03 525.03 0 0 0-4-.578c-.321-.042-1.821-.263-3.334-.49a132.82 132.82 0 0 0-4.25-.576c-.825-.088-3.487-.383-5.916-.656-4.121-.461-8.047-.818-13.25-1.204-7.596-.563-20.83-.732-31.167-.398" fill="#fff"/><path d="M76.125.121c.298.037.785.037 1.083 0 .298-.037.054-.068-.541-.068-.596 0-.84.031-.542.068m42.167.001a9.561 9.561 0 0 0 1.416 0c.39-.035.071-.064-.708-.064-.779 0-1.098.029-.708.064M70.167.333l-.75.117 1 .022c.55.013 1.112-.05 1.25-.139.292-.188-.286-.188-1.5 0m54 0c.631.203 1.479.203 1.166 0-.137-.089-.55-.155-.916-.147-.579.012-.612.032-.25.147M65.005.66c-.135.085-.187.213-.116.284.071.072.182.045.246-.059.064-.103.341-.221.616-.262L66.25.55l-.5-.022c-.275-.013-.61.047-.745.132m64.078-.037c.274.041.552.159.616.262.064.104.174.131.245.059.199-.198-.303-.441-.861-.416l-.5.022.5.073M61 1.167c-.19.122-.119.162.292.164.298.001.541-.073.541-.164 0-.212-.505-.212-.833 0m73.083 0c.057.091.324.166.594.166.269 0 .49-.075.49-.166 0-.092-.267-.167-.594-.167-.353 0-.551.067-.49.167M57.417 1.5c-.059.095.081.167.323.167.235 0 .427-.075.427-.167 0-.092-.146-.167-.324-.167-.178 0-.37.075-.426.167m79.916 0c0 .092.23.167.51.167.298 0 .467-.07.407-.167-.057-.092-.286-.167-.51-.167-.224 0-.407.075-.407.167m-83.583.333c-.058.094.078.167.314.167.229 0 .463-.075.519-.167.059-.094-.078-.166-.313-.166-.229 0-.463.075-.52.166m86.833 0c.057.092.291.167.52.167.235 0 .372-.073.314-.167-.057-.091-.291-.166-.52-.166-.235 0-.372.072-.314.166m-90.375.288c-.298.037-.541.137-.541.223 0 .2 1.382.205 1.591.006.087-.083.309-.187.492-.231.397-.096-.769-.094-1.542.002m93.157.101c.182.182.553.278 1.073.278 1.063 0 .757-.306-.449-.449-.842-.1-.884-.088-.624.171m-96.282.445c-.058.094.082.166.324.166.234 0 .426-.075.426-.166 0-.092-.145-.167-.323-.167-.178 0-.37.075-.427.167m99.834 0c.056.091.215.166.353.166.137 0 .203-.075.147-.166-.057-.092-.216-.167-.353-.167-.138 0-.204.075-.147.167m2.75.333c0 .092.154.167.343.167.189 0 .297-.075.24-.167-.057-.092-.211-.167-.343-.167-.132 0-.24.075-.24.167m-110.75.667c-.057.091.009.166.147.166.137 0 .296-.075.353-.166.056-.092-.01-.167-.147-.167-.138 0-.297.075-.353.167m115.916 0c0 .091.155.166.344.166.188 0 .296-.075.24-.166-.057-.092-.211-.167-.344-.167-.132 0-.24.075-.24.167m-118.291.277c-.32.129-.248.389.107.389.173 0 .359-.112.411-.25.095-.248-.112-.303-.518-.139m120.496.117c.149.15.404.272.567.272.377 0 .117-.253-.431-.42-.378-.114-.388-.103-.136.148M33.917 4.5c-.057.092.047.167.23.167s.38-.075.436-.167c.057-.092-.047-.167-.23-.167s-.38.075-.436.167m125.416 0c0 .092.267.167.594.167.353 0 .551-.068.49-.167-.057-.092-.324-.167-.594-.167-.269 0-.49.075-.49.167M30.75 4.833c-.057.092.047.167.23.167.184 0 .38-.075.437-.167.056-.091-.047-.166-.231-.166-.183 0-.379.075-.436.166m131.167 0c.056.092.253.167.436.167s.287-.075.23-.167c-.056-.091-.253-.166-.436-.166s-.287.075-.23.166M29 5.167c-.203.131-.182.162.115.164.201.001.412-.073.468-.164.131-.213-.255-.213-.583 0m-2.722.277c-.212.212-.11.389.222.389.183 0 .333-.069.333-.154 0-.085.132-.189.292-.231.16-.042.06-.085-.222-.095-.283-.011-.564.03-.625.091m139.282.139c.137.138.461.248.72.245.449-.005.456-.016.146-.25-.46-.348-1.215-.344-.866.005M20.5 6.667c-.203.131-.182.162.115.164.201.001.412-.073.468-.164.131-.213-.255-.213-.583 0m150.917 0c.056.091.29.166.519.166.236 0 .372-.072.314-.166-.057-.092-.291-.167-.52-.167-.235 0-.372.073-.313.167m-154.709.61c-.254.103-.276.39-.029.39.098 0 .291-.113.428-.25.259-.259.065-.327-.399-.14m158.538.16c.148.148.32.219.382.157s.002-.182-.133-.267c-.394-.249-.542-.184-.249.11m6.587 1.396c.599.192.869.192.75 0-.056-.091-.342-.159-.635-.15-.507.016-.513.023-.115.15m-174.75.286c-.183.044-.404.148-.491.231-.257.243.319.177.847-.099.465-.242.322-.295-.356-.132M186 10c0 .092.15.167.333.167.184 0 .334-.075.334-.167 0-.092-.15-.167-.334-.167-.183 0-.333.075-.333.167m4.583 1.167c-.056.091.052.166.24.166.189 0 .344-.075.344-.166 0-.092-.108-.167-.24-.167-.133 0-.287.075-.344.167m4.417 1c.328.212.714.212.583 0-.056-.092-.267-.166-.468-.164-.297.002-.318.032-.115.164m1.5.416c.545.312.841.308.426-.005-.177-.135-.44-.242-.583-.239-.166.004-.11.092.157.244m3.083.75c.057.092.216.167.353.167.138 0 .204-.075.147-.167-.056-.091-.215-.166-.353-.166-.137 0-.203.075-.147.166m4.396 1.052c.25.308.688.381.688.115 0-.092-.069-.167-.153-.167-.085 0-.291-.051-.459-.114-.268-.101-.278-.081-.076.166m4.604 1.115c.057.092.268.166.469.164.296-.002.318-.033.115-.164-.329-.212-.715-.212-.584 0m1.857.417c.052.137.247.25.432.25.279 0 .301-.042.128-.25-.114-.138-.308-.25-.432-.25-.131 0-.184.104-.128.25m3.393.75c0 .091.155.166.344.166.188 0 .296-.075.24-.166-.057-.092-.211-.167-.344-.167-.132 0-.24.075-.24.167m4.963 1.094c.301.157.595.237.653.179.163-.164-.003-.261-.628-.367l-.571-.097.546.285m5.287 1.072c.057.092.305.166.552.164.351-.002.394-.037.198-.164-.329-.212-.881-.212-.75 0m2.143.417c.138.137.331.25.429.25.273 0 .212-.285-.085-.399-.456-.175-.603-.111-.344.149m9.482 1.698c.161.042.292.146.292.231 0 .085.131.152.292.149.264-.005.261-.029-.032-.25-.178-.135-.441-.236-.584-.225-.201.015-.194.036.032.095m4.125.885c0 .092.155.167.344.167.188 0 .296-.075.24-.167-.057-.091-.211-.166-.344-.166-.132 0-.24.075-.24.166m1.917.334c-.059.096.095.165.365.164.364-.002.412-.039.218-.164-.32-.207-.455-.207-.583 0m2.25.333c.137.089.362.162.5.162.222 0 .222-.018 0-.162a1.106 1.106 0 0 0-.5-.162c-.222 0-.222.018 0 .162m2.06.417c.272.272.773.339.773.102 0-.081-.168-.192-.375-.247-.583-.157-.669-.126-.398.145m2.19.416c.057.092.249.167.427.167.177 0 .323-.075.323-.167 0-.091-.192-.166-.427-.166-.241 0-.381.072-.323.166m2.583.334c0 .091.207.165.459.164.357-.002.403-.038.208-.164-.326-.211-.667-.211-.667 0m4.667.564c0 .141.848.214.93.08.05-.079-.14-.144-.42-.144-.281 0-.51.028-.51.064m2.917.602c.056.092.328.167.603.167.291 0 .457-.07.397-.167-.057-.091-.328-.166-.603-.166-.291 0-.457.069-.397.166m4.166.667c.057.092.328.167.603.167.291 0 .457-.07.397-.167-.056-.092-.328-.167-.603-.167-.291 0-.457.07-.397.167m5.125.615c.161.042.292.146.292.231 0 .084.131.152.292.149.264-.005.261-.029-.032-.25-.178-.135-.441-.236-.584-.226-.201.015-.194.037.032.096m2.542.552c.057.091.249.166.427.166.177 0 .323-.075.323-.166 0-.092-.192-.167-.427-.167-.241 0-.381.072-.323.167m4.917.666c0 .092.168.166.375.164.303-.002.327-.033.125-.164-.323-.208-.5-.208-.5 0m2.432.397c.114.298 1.234.392 1.234.103 0-.091-.131-.167-.291-.169a3.222 3.222 0 0 1-.669-.103c-.301-.08-.357-.046-.274.169m3.151.437c.057.091.211.166.343.166.132 0 .24-.075.24-.166 0-.092-.154-.167-.343-.167-.189 0-.297.075-.24.167m2.917.333c0 .092.15.167.333.167.183 0 .333-.075.333-.167 0-.092-.15-.167-.333-.167-.183 0-.333.075-.333.167m2.583.333c.057.092.38.162.718.155.496-.009.551-.039.282-.155-.468-.201-1.124-.201-1 0m3.417.334c.329.212.881.212.75 0-.057-.092-.305-.166-.552-.164-.351.002-.394.037-.198.164m3.059.416c.138.138.331.25.429.25.273 0 .212-.284-.085-.399-.456-.174-.603-.11-.344.149m3.107.417c0 .092.267.167.594.167.353 0 .551-.068.49-.167-.057-.092-.324-.167-.594-.167-.269 0-.49.075-.49.167m3.5.333c0 .092.192.167.427.167.242 0 .382-.072.323-.167-.056-.091-.248-.166-.426-.166s-.324.075-.324.166m3.667.334c0 .091.154.166.343.166.189 0 .297-.075.24-.166-.056-.092-.211-.167-.343-.167-.132 0-.24.075-.24.167m3.25.333c.275.07.8.127 1.167.126l.666-.001-.75-.134c-1.018-.181-1.804-.174-1.083.009m4.208.286c.115.04.209.141.209.226 0 .085.15.155.333.155.183 0 .333-.075.333-.167 0-.092-.093-.168-.208-.169a4.393 4.393 0 0 1-.542-.059c-.183-.032-.239-.025-.125.014m3.542.547c0 .092.15.167.333.167.184 0 .334-.075.334-.167 0-.091-.15-.166-.334-.166-.183 0-.333.075-.333.166m3.667.334c0 .091.267.166.593.166.353 0 .551-.067.49-.166-.057-.092-.324-.167-.593-.167-.27 0-.49.075-.49.167m4.5.333c.137.089.475.162.75.162.383 0 .441-.038.25-.162-.138-.089-.475-.162-.75-.162-.384 0-.442.038-.25.162m4.426.411c.454.344 1.024.348.74.006-.114-.138-.4-.25-.635-.25-.412 0-.416.009-.105.244m4.24.422c0 .092.342.167.76.167.464 0 .72-.065.657-.167-.057-.091-.399-.166-.76-.166s-.657.075-.657.166m5.5.334c0 .091.267.166.594.166.353 0 .551-.067.49-.166-.057-.092-.324-.167-.594-.167-.269 0-.49.075-.49.167m52.334 2.064c0 .036.221.097.491.137.27.039.453.01.407-.065-.083-.133-.898-.199-.898-.072" fill="#330"/><path d="M74.75.175c-1.65.059-3.187.153-3.417.21-.229.057-1.688.132-3.242.168-1.919.045-2.845.127-2.889.256-.042.126-.624.191-1.716.191-.991 0-1.653.067-1.653.167 0 .101-.722.166-1.833.166s-1.833.066-1.833.167c0 .1-.684.167-1.717.167-.944 0-1.788.066-1.875.148-.087.082-.816.181-1.62.22-.804.04-1.551.161-1.659.269-.124.124-.798.196-1.829.196-.978 0-1.634.067-1.634.167 0 .101-.719.166-1.823.166-1.036 0-1.868.072-1.927.167-.056.092-.467.167-.912.167-.473 0-.837.081-.875.196-.042.126-.151.143-.306.046-.317-.197-.979-.228-1.089-.05-.048.077-.378.141-.734.141s-.694.075-.75.167c-.057.091-.589.166-1.182.166-.805 0-1.103.064-1.175.25-.072.189-.376.25-1.235.25-.626 0-1.185.075-1.242.167-.056.092-.769.167-1.583.167s-1.527.075-1.583.166c-.057.092-.459.167-.894.167-.434 0-.861.067-.948.15-.087.082-.716.179-1.397.215-.767.041-1.264.143-1.305.267-.042.124-.413.201-.97.201-.497 0-.903.069-.903.153 0 .084-.506.192-1.125.24-1.626.126-2.602.287-2.783.458-.087.082-.589.149-1.115.149-.527 0-1.004.075-1.06.167-.057.092-.431.167-.832.167-.425 0-.832.104-.978.25-.171.171-.594.25-1.345.25-.619 0-1.095.072-1.095.166 0 .096-.5.167-1.167.167s-1.167.071-1.167.167c0 .091-.258.166-.573.166-.316 0-.62.075-.677.167-.056.092-.515.167-1.02.167-.88 0-2.473.392-2.805.69-.087.079-.518.143-.958.143-.44 0-.8.075-.8.167 0 .091-.338.166-.75.166-.413 0-.75.068-.75.151 0 .083-.356.192-.792.243-1.685.198-2.202.315-2.389.54A.746.746 0 0 1 .313 11C.009 11 0 11.403 0 24.436c0 12.719.016 13.432.292 13.349a98.4 98.4 0 0 0 2.375-.87c1.146-.431 2.495-.92 3-1.088.504-.167 2.116-.73 3.583-1.25s2.892-1.003 3.167-1.073a50.246 50.246 0 0 0 2.083-.655 186.412 186.412 0 0 1 6.667-2.097c1.146-.337 2.533-.753 3.083-.926.55-.172 1.75-.514 2.667-.758l3.75-1.005c5.727-1.54 16.793-4.114 19.583-4.555a88.643 88.643 0 0 0 2.917-.565 78.12 78.12 0 0 1 3.166-.597c.596-.09 1.946-.317 3-.506s2.967-.498 4.25-.686l4-.588c.917-.134 2.267-.311 3-.392.734-.081 3.284-.372 5.667-.647 18.293-2.111 39.502-2.389 58.667-.768 8.175.691 13.421 1.329 25.333 3.081 6.082.894 10.651 1.531 11.917 1.661.687.071 3.087.36 5.333.641 4.302.54 8.634 1.055 11.417 1.356 9.002.976 11.237 1.209 12.75 1.331.962.078 4.15.368 7.083.646 6.042.571 15.594 1.383 20.917 1.778 1.97.146 4.933.379 6.583.518 1.65.139 4.237.319 5.75.4 1.512.08 4.887.301 7.5.49 2.612.189 6.7.454 9.083.588 2.384.135 6.884.398 10 .586 3.117.187 7.279.411 9.25.497a2036.3 2036.3 0 0 1 16.834.834c1.695.093 5.22.242 7.833.331 2.612.09 7.412.273 10.667.408 13.938.577 24.664.927 24.875.811.581-.321.078-.883-.792-.883-.504 0-.917-.075-.917-.166 0-.105-1.027-.167-2.75-.167-1.722 0-2.75-.062-2.75-.167 0-.101-.766-.166-1.966-.166-1.352 0-2.032-.066-2.175-.209-.208-.209-2.244-.375-6.817-.555-1.215-.048-2.208-.159-2.208-.245 0-.09-.792-.158-1.834-.158-1.111 0-1.833-.066-1.833-.167 0-.1-.662-.166-1.653-.166-1.164 0-1.673-.061-1.721-.206-.047-.141-.756-.247-2.222-.333-4.699-.276-5.404-.339-5.404-.481 0-.081-.825-.147-1.833-.147-1.111 0-1.834-.066-1.834-.167 0-.1-.694-.166-1.75-.166-1.055 0-1.75-.066-1.75-.167 0-.099-.606-.167-1.486-.167-1.041 0-1.507-.062-1.555-.208-.07-.211-1.509-.379-4.792-.56-.871-.048-1.655-.157-1.742-.243-.087-.085-.705-.155-1.375-.155-.7 0-1.216-.071-1.216-.167 0-.098-.58-.167-1.407-.167-.774 0-1.453-.075-1.51-.166-.057-.092-.766-.167-1.575-.167-1.155 0-1.493-.054-1.569-.25-.072-.189-.379-.25-1.267-.25-.671 0-1.172-.071-1.172-.167 0-.091-.413-.166-.917-.166s-.917-.075-.917-.167c0-.099-.607-.167-1.49-.167-.819 0-1.536-.075-1.593-.166-.057-.092-.58-.167-1.163-.167-.643 0-1.084-.074-1.122-.19-.037-.109-.592-.223-1.306-.268-.683-.044-1.267-.146-1.298-.227-.03-.082-.645-.148-1.365-.148s-1.356-.075-1.413-.167c-.056-.092-.511-.167-1.01-.167-.498 0-.906-.075-.906-.166 0-.094-.469-.167-1.074-.167-.59 0-1.12-.075-1.176-.167-.057-.091-.511-.166-1.01-.166s-.907-.063-.907-.139c0-.077-.094-.147-.208-.158-.115-.01-.809-.103-1.542-.207a41.973 41.973 0 0 0-2.625-.272c-.71-.046-1.292-.152-1.292-.237 0-.085-.558-.154-1.24-.154-.682 0-1.286-.075-1.343-.167-.057-.091-.542-.166-1.079-.166-.609 0-1.002-.075-1.043-.2-.068-.203-1.333-.421-3.338-.575-.62-.047-1.084-.155-1.032-.239.054-.086-.344-.153-.915-.153-.562 0-1.01-.074-1.01-.167 0-.091-.412-.166-.916-.166-.505 0-.917-.075-.917-.167 0-.093-.444-.167-1-.167-.55 0-1-.071-1-.159 0-.087-.281-.204-.625-.259-.344-.055-.755-.171-.914-.257-.16-.087-.703-.158-1.209-.158-.505 0-.919-.067-.919-.149 0-.18-.968-.344-2.708-.458-.71-.047-1.292-.154-1.292-.239 0-.085-.418-.154-.928-.154-.603 0-1.016-.088-1.179-.25-.16-.16-.571-.25-1.145-.25-.492 0-.941-.075-.998-.167-.056-.091-.398-.166-.76-.166-.361 0-.656-.075-.656-.167 0-.092-.371-.167-.824-.167-.453 0-.87-.075-.926-.166-.057-.092-.465-.167-.908-.167-.442 0-1.019-.112-1.282-.249-.262-.137-.679-.249-.925-.25-.247-.001-.495-.076-.552-.168-.057-.091-.436-.166-.843-.166s-.74-.075-.74-.167c0-.092-.413-.167-.917-.167s-.917-.075-.917-.166c0-.092-.337-.167-.75-.167-.412 0-.75-.075-.75-.167 0-.091-.404-.166-.899-.166-.645 0-.925-.071-.994-.25-.068-.176-.342-.25-.925-.25-.456 0-.875-.075-.932-.167-.056-.092-.323-.167-.593-.167-.269 0-.49-.075-.49-.166 0-.092-.338-.167-.75-.167s-.75-.075-.75-.167c0-.091-.403-.166-.896-.166-.594 0-.967-.085-1.104-.25-.114-.138-.461-.25-.77-.25-.31 0-.563-.075-.563-.167 0-.092-.338-.167-.75-.167-.413 0-.75-.075-.75-.166 0-.092-.333-.167-.74-.167-.408 0-.787-.075-.844-.167-.056-.091-.44-.166-.853-.166-.457 0-.71-.065-.647-.167.062-.099-.14-.167-.501-.167-.332 0-.768-.088-.968-.196-.338-.181-.74-.292-2.031-.559a5.308 5.308 0 0 1-.833-.247c-.346-.149-1.101-.284-2.458-.439-.436-.05-.75-.159-.699-.241.051-.083-.205-.151-.569-.151-.365 0-.691-.085-.726-.188-.064-.193-1.108-.439-2.506-.591-.436-.048-.792-.154-.792-.237 0-.083-.263-.151-.583-.151-.321 0-.584-.075-.584-.166 0-.092-.293-.167-.652-.167-.359 0-.679-.078-.711-.173-.062-.186-2.098-.66-2.835-.66-.247 0-.495-.075-.552-.167-.056-.092-.398-.167-.76-.167-.361 0-.656-.075-.656-.166 0-.092-.333-.167-.74-.167-.408 0-.787-.075-.844-.167-.056-.091-.441-.166-.855-.166-.446 0-.853-.102-1.002-.25-.137-.138-.54-.25-.895-.25-.354 0-.691-.075-.748-.167-.056-.092-.544-.167-1.083-.167-.539 0-1.027-.075-1.083-.166-.057-.092-.474-.167-.927-.167-.453 0-.823-.075-.823-.167 0-.091-.413-.166-.917-.166s-.917-.075-.917-.167c0-.093-.448-.167-1.012-.167-.677 0-1.094-.082-1.261-.25-.147-.147-.555-.25-.989-.25-.406 0-.738-.075-.738-.166 0-.092-.408-.167-.906-.167-.499 0-.954-.075-1.01-.167-.057-.091-.661-.166-1.344-.166-.715 0-1.24-.071-1.24-.167 0-.093-.448-.167-1.012-.167-.677 0-1.094-.082-1.261-.25-.166-.166-.582-.25-1.239-.25-.543 0-.988-.068-.988-.151 0-.174-1.208-.328-3.541-.451-.894-.048-1.625-.156-1.625-.242s-.596-.156-1.324-.156c-.728 0-1.37-.075-1.426-.166-.057-.093-.812-.167-1.689-.167-1.187 0-1.648-.063-1.835-.25-.177-.177-.609-.25-1.478-.25-.676 0-1.275-.075-1.332-.167-.057-.092-.807-.166-1.676-.166-.938 0-1.574-.068-1.574-.167s-.635-.167-1.573-.167c-.869 0-1.62-.074-1.677-.166-.06-.097-.997-.167-2.246-.167-1.458 0-2.163-.061-2.206-.19-.067-.202-2.554-.372-9.214-.631C116.233.017 79.295.014 74.75.175m267.346 34.596c.317.164 1.107.226 2.798.218 1.74-.007 2.247-.054 1.94-.176-.229-.091-.681-.147-1.005-.123-.323.023-.661-.002-.75-.055-.089-.054-.896-.097-1.793-.095-1.488.001-1.593.022-1.19.231m12.071.396c0 .103.901.165 2.375.164 1.595-.002 2.293-.056 2.125-.164-.338-.218-4.5-.218-4.5 0m9.833.323c0 .119 1.206.173 3.708.165 2.04-.006 3.559-.071 3.375-.143-.532-.209-7.083-.229-7.083-.022m14.759.328c-.132.214 1.403.295 5.741.305 4.012.009 5.504-.089 4.583-.301-.76-.176-10.215-.179-10.324-.004" fill="#96bc5e"/></g></svg>