<svg width="245" height="121" xmlns="http://www.w3.org/2000/svg"><g fill="none" fill-rule="evenodd"><path d="M19.472 119.058c0 .082-.054.123-.157.123-.065 0-.16-.004-.297-.016a3.646 3.646 0 0 0-.29-.02 3.63 3.63 0 0 0-.301.02 3.357 3.357 0 0 1-.294.016c-.091 0-.133-.04-.133-.132 0-.44.015-1.105.053-1.995.038-.883.054-1.55.054-1.996 0-.43-.016-1.072-.054-1.934A46.17 46.17 0 0 1 18 111.19c0-.095.042-.145.122-.145.069 0 .172.009.313.017.137.012.244.02.316.02.065 0 .16-.008.29-.02.13-.008.225-.017.29-.017.091 0 .14.042.14.12a61.7 61.7 0 0 1-.045 1.946 62.19 62.19 0 0 0-.046 1.947c0 .445.015 1.113.046 2.004.03.886.046 1.554.046 1.996zm5.836.008c0 .082-.034.128-.106.128-.119 0-.294-.004-.53-.004-.233-.004-.408-.009-.53-.009-.061 0-.096-.057-.096-.169 0-.19.008-.474.016-.866.011-.383.019-.676.019-.866 0-.156-.004-.387-.008-.696-.004-.306-.004-.537-.004-.693 0-.442-.06-.75-.175-.932-.145-.215-.408-.326-.797-.326-.175 0-.423.111-.743.326-.336.23-.504.433-.504.61v3.48c0 .095-.034.145-.102.145-.115 0-.286-.004-.515-.004-.229-.004-.4-.009-.515-.009-.076 0-.114-.04-.114-.132 0-.305.004-.762.015-1.377.008-.61.012-1.072.012-1.381a10.142 10.142 0 0 0-.252-2.355c0-.037.023-.066.069-.082.026 0 .228-.038.613-.103.385-.07.587-.104.606-.104.02 0 .031.033.042.095.016.24.058.483.122.726.187-.16.431-.359.732-.594.378-.247.74-.37 1.09-.37.672 0 1.13.21 1.377.634.183.31.274.808.274 1.501 0 .12-.003.301-.007.549-.008.247-.012.433-.012.56 0 .256.004.644.012 1.16.007.51.011.898.011 1.158zm4.01-.944c0 .082-.007.198-.022.346a6.33 6.33 0 0 0-.03.35.435.435 0 0 1-.02.128.255.255 0 0 1-.099.079c-.293.152-.755.227-1.38.227-.83 0-1.246-.409-1.25-1.23 0-.325.007-.82.015-1.48.011-.66.02-1.154.02-1.48 0-.161-.073-.243-.222-.256-.133 0-.263-.004-.393-.008-.072-.017-.11-.177-.11-.474 0-.112.007-.231.019-.355.011-.095.068-.148.171-.169.088 0 .18-.004.263-.004.164-.008.248-.09.248-.24 0-.156-.004-.391-.011-.709a32.295 32.295 0 0 1-.012-.713c0-.285.05-.425.149-.425.034 0 .37.062 1.003.182.084.008.122.053.122.123 0 .174-.012.43-.038.772-.027.338-.039.593-.039.762 0 .116.05.17.15.17h1.292c.06 0 .091.024.091.07 0 .045-.008.12-.02.222a1.73 1.73 0 0 0-.018.231c0 .058 0 .145.004.264.004.12.007.21.007.268 0 .07-.05.112-.152.112-.145 0-.359-.013-.652-.033a9.535 9.535 0 0 0-.648-.03c-.027 0-.05.112-.065.33-.008.277-.011.66-.011 1.16v.861c0 .334.03.565.087.697.084.202.26.301.526.301.11 0 .271-.025.485-.074.213-.054.373-.078.476-.078.042 0 .065.033.065.103zm5.3-2.058c0 .289-.114.478-.343.577-.153.062-1.262.173-3.324.343.045.342.22.63.522.87.286.226.595.342.922.342.568 0 1.087-.194 1.56-.586.06-.05.118-.103.175-.148.027 0 .046 0 .053.008.012.008.077.14.202.4.126.264.191.4.191.42 0 .025-.03.07-.088.133-.526.602-1.197.903-2.02.903-.831 0-1.49-.268-1.986-.804-.492-.536-.74-1.25-.74-2.145 0-.796.236-1.488.71-2.078.495-.619 1.1-.924 1.825-.924.671 0 1.232.264 1.682.8.438.516.659 1.15.659 1.889zm-1.273-.35a1.21 1.21 0 0 0-.351-.854c-.236-.248-.5-.371-.793-.371-.332 0-.621.144-.877.429a1.406 1.406 0 0 0-.385.96c0 .083.065.12.195.12.53 0 1.162-.058 1.898-.17.206-.032.313-.07.313-.115zm5.093-1.98c0 .425-.027.812-.08 1.163-.011.087-.046.132-.107.132-.076 0-.187-.008-.34-.025a2.812 2.812 0 0 0-.35-.029c-.45 0-.74.14-.865.413-.073.169-.11.515-.11 1.039v.639c0 .214.007.544.018.986.016.44.023.767.023.985 0 .103-.038.157-.122.157-.11 0-.274-.004-.5-.004-.22-.004-.392-.009-.502-.009-.08 0-.122-.045-.122-.144 0-.313.007-.788.015-1.414.011-.631.011-1.105.011-1.423 0-.953-.08-1.72-.24-2.301a.335.335 0 0 1-.011-.07c0-.05.026-.078.072-.1l.549-.07c.385-.078.564-.119.534-.119.057 0 .095.116.11.342.02.236.05.351.1.351.003 0 .015-.008.026-.012.145-.103.29-.202.439-.306.163-.107.327-.181.495-.235.141-.045.32-.07.541-.07.279 0 .416.042.416.124zm5.314 5.332c0 .082-.034.128-.106.128-.118 0-.294-.004-.53-.004-.233-.004-.408-.009-.53-.009-.061 0-.095-.057-.095-.169 0-.19.007-.474.019-.866.007-.383.015-.676.015-.866 0-.156-.004-.387-.008-.696 0-.306-.004-.537-.004-.693 0-.442-.057-.75-.175-.932-.145-.215-.408-.326-.793-.326-.18 0-.427.111-.747.326-.336.23-.503.433-.503.61v3.48c0 .095-.035.145-.103.145-.11 0-.286-.004-.515-.004-.229-.004-.4-.009-.515-.009-.076 0-.114-.04-.114-.132 0-.305.008-.762.015-1.377.008-.61.015-1.072.015-1.381 0-.82-.08-1.584-.24-2.277-.007-.037-.015-.061-.015-.078 0-.037.023-.066.072-.082.023 0 .225-.038.61-.103.386-.07.588-.104.607-.104.019 0 .034.033.042.095.019.24.057.483.122.726.186-.16.43-.359.732-.594.377-.247.74-.37 1.09-.37.67 0 1.132.21 1.376.634.183.31.275.808.275 1.501 0 .12-.004.301-.008.549-.008.247-.008.433-.008.56 0 .256.004.644.008 1.16.011.51.011.898.011 1.158zm6.237-5.134c0 .016-.003.05-.015.107-.14.883-.213 1.646-.213 2.285 0 .04.045.907.137 2.606l.004.078c.004.116-.042.17-.141.17-.1 0-.248.012-.446.036a3.158 3.158 0 0 1-.443.038c-.068 0-.122-.132-.156-.4-.038-.273-.069-.405-.103-.405-.023 0-.118.075-.29.223-.21.186-.407.326-.59.425-.283.152-.565.23-.847.23-.694 0-1.277-.3-1.753-.898-.45-.573-.675-1.241-.675-2.004 0-.854.225-1.567.678-2.124.477-.586 1.102-.878 1.88-.878.545 0 1.025.206 1.43.618.06.074.156.186.285.334.012.013.02.017.03.017.024 0 .054-.12.092-.363.042-.248.092-.367.153-.367.099 0 .278.029.545.086.294.07.438.132.438.186zm-1.372 2.425c0-.475-.13-.879-.389-1.22-.274-.368-.625-.55-1.056-.55-.43 0-.785.182-1.075.545a1.913 1.913 0 0 0-.412 1.225c0 .466.138.874.412 1.216.29.359.644.54 1.075.54.42 0 .766-.185 1.049-.552a1.9 1.9 0 0 0 .396-1.204zm5.23 1.765c0 .082-.007.198-.022.346-.016.181-.027.297-.03.35a.788.788 0 0 1-.016.128.313.313 0 0 1-.103.079c-.294.152-.751.227-1.38.227-.827 0-1.247-.409-1.25-1.23 0-.325.007-.82.019-1.48.011-.66.015-1.154.015-1.48 0-.161-.073-.243-.221-.256-.134 0-.263-.004-.39-.008-.075-.017-.114-.177-.114-.474 0-.112.008-.231.02-.355.015-.095.068-.148.175-.169.088 0 .175-.004.26-.004.163-.008.247-.09.247-.24 0-.156-.004-.391-.012-.709a32.295 32.295 0 0 1-.011-.713c0-.285.05-.425.153-.425.03 0 .366.062.998.182.084.008.126.053.126.123 0 .174-.015.43-.042.772-.023.338-.038.593-.038.762 0 .116.05.17.149.17h1.292c.061 0 .092.024.092.07 0 .045-.008.12-.02.222a2.38 2.38 0 0 0-.018.231c0 .058.003.145.007.264 0 .12.004.21.004.268 0 .07-.05.112-.149.112-.145 0-.362-.013-.652-.033a9.726 9.726 0 0 0-.652-.03c-.026 0-.05.112-.06.33-.008.277-.016.66-.016 1.16v.861c0 .334.03.565.088.697.084.202.26.301.526.301.11 0 .27-.025.484-.074.214-.054.374-.078.477-.078.042 0 .065.033.065.103zm2.162-5.877c0 .475-.248.714-.736.714-.5 0-.747-.24-.747-.714 0-.21.076-.387.229-.527a.738.738 0 0 1 .518-.194c.199 0 .374.066.519.198a.705.705 0 0 1 .217.523zm-.046 1.571c0 .297-.015.747-.05 1.349a27.053 27.053 0 0 0-.049 1.353c0 .284.008.705.016 1.27.015.56.019.981.019 1.257 0 .083-.035.124-.1.124h-1.044c-.076 0-.114-.078-.114-.235 0-.268.007-.672.019-1.204.015-.536.019-.94.019-1.212 0-.297-.02-.751-.061-1.357a24.334 24.334 0 0 1-.061-1.357c0-.062.038-.099.114-.099.065 0 .16.013.294.029.137.02.236.029.305.029.068 0 .167-.008.3-.029.134-.016.233-.029.302-.029.06 0 .091.037.091.111zm5.921 2.54c0 .809-.244 1.498-.736 2.07-.5.59-1.117.887-1.856.887-.748 0-1.365-.292-1.868-.882-.488-.57-.736-1.258-.736-2.066 0-.804.248-1.493.736-2.062.507-.581 1.124-.87 1.868-.87.735 0 1.353.289 1.852.87.492.565.74 1.25.74 2.054zm-1.132.009c0-.47-.134-.87-.4-1.204-.279-.35-.633-.528-1.06-.528-.431 0-.786.173-1.068.524-.27.334-.404.738-.404 1.208 0 .466.137.87.408 1.208.286.359.64.54 1.064.54.423 0 .777-.181 1.06-.54.266-.338.4-.742.4-1.208zm6.614 2.701c0 .082-.038.128-.11.128-.115 0-.294-.004-.527-.004-.236-.004-.411-.009-.53-.009-.064 0-.099-.057-.099-.169 0-.19.008-.474.02-.866.01-.383.015-.676.015-.866 0-.156 0-.387-.004-.696-.004-.306-.008-.537-.008-.693 0-.442-.057-.75-.175-.932-.145-.215-.408-.326-.793-.326-.18 0-.427.111-.743.326-.336.23-.507.433-.507.61v3.48c0 .095-.035.145-.103.145-.111 0-.283-.004-.511-.004-.233-.004-.4-.009-.519-.009-.076 0-.11-.04-.11-.132 0-.305.004-.762.011-1.377.012-.61.015-1.072.015-1.381 0-.82-.08-1.584-.236-2.277a.333.333 0 0 1-.019-.078c0-.037.027-.066.072-.082.027 0 .23-.038.61-.103.385-.07.587-.104.607-.104.019 0 .034.033.041.095.02.24.058.483.122.726.187-.16.431-.359.736-.594.374-.247.74-.37 1.087-.37.675 0 1.132.21 1.376.634.183.31.275.808.275 1.501 0 .12-.004.301-.008.549-.008.247-.008.433-.008.56 0 .256.004.644.012 1.16.007.51.011.898.011 1.158zm6.237-5.134c0 .016-.007.05-.019.107-.141.883-.213 1.646-.213 2.285 0 .04.045.907.137 2.606l.007.078c.004.116-.045.17-.144.17-.1 0-.248.012-.446.036a3.158 3.158 0 0 1-.443.038c-.068 0-.118-.132-.156-.4-.038-.273-.069-.405-.103-.405-.023 0-.118.075-.29.223-.21.186-.408.326-.587.425a1.78 1.78 0 0 1-.846.23c-.694 0-1.281-.3-1.758-.898-.45-.573-.674-1.241-.674-2.004 0-.854.228-1.567.682-2.124.473-.586 1.098-.878 1.876-.878.545 0 1.025.206 1.433.618.057.074.153.186.282.334a.045.045 0 0 0 .035.017c.019 0 .053-.12.087-.363.042-.248.092-.367.153-.367.099 0 .278.029.545.086.293.07.442.132.442.186zm-1.372 2.425c0-.475-.13-.879-.393-1.22-.274-.368-.625-.55-1.056-.55-.427 0-.785.182-1.071.545a1.913 1.913 0 0 0-.412 1.225c0 .466.137.874.412 1.216.286.359.644.54 1.071.54.42 0 .766-.185 1.048-.552.267-.342.4-.742.4-1.204zm3.59-5.217l-.007.074a71.325 71.325 0 0 0-.114 3.708c0 .457.008 1.146.023 2.066.015.92.019 1.604.019 2.061 0 .091-.027.132-.084.132h-1.026c-.06 0-.095-.04-.095-.132 0-.457.004-1.142.012-2.061.007-.92.011-1.609.011-2.066 0-.421-.019-1.048-.057-1.885a51.16 51.16 0 0 1-.054-1.872c0-.078.035-.12.111-.12.065 0 .16.009.29.017.126.012.22.02.29.02.064 0 .163-.008.297-.02.133-.008.229-.017.293-.017.061 0 .096.033.092.095zm8.117.495a9.047 9.047 0 0 0-.293.581c-.042.12-.11.293-.21.512-.023.033-.053.053-.087.053.003 0-.168-.07-.519-.21-.347-.136-.633-.206-.858-.206-.66 0-.987.313-.987.936 0 .346.229.652.69.911.778.437 1.205.689 1.285.755.46.4.694.936.694 1.612 0 .866-.317 1.55-.95 2.05-.568.45-1.27.672-2.1.672-.39 0-.595-.045-.626-.14a7.488 7.488 0 0 0-.095-.643c-.027-.116-.072-.29-.133-.52a.333.333 0 0 1-.016-.099c0-.054.027-.083.08-.083.084 0 .218.009.393.03.183.02.317.028.404.028 1.113 0 1.67-.387 1.67-1.163 0-.379-.225-.705-.67-.985-.82-.5-1.236-.763-1.255-.784-.454-.391-.679-.923-.679-1.587 0-.722.221-1.3.656-1.732.423-.417.976-.623 1.655-.623.285 0 .613.05.983.153.404.11.71.243.915.404a.348.348 0 0 1 .053.078zm5.357 4.429c0 .289-.115.478-.343.577-.157.062-1.262.173-3.325.343.046.342.218.63.523.87.286.226.594.342.922.342.568 0 1.087-.194 1.56-.586.057-.05.114-.103.171-.148.03 0 .05 0 .057.008.008.008.076.14.202.4.126.264.187.4.187.42 0 .025-.027.07-.084.133-.526.602-1.2.903-2.024.903-.827 0-1.487-.268-1.983-.804-.491-.536-.74-1.25-.74-2.145 0-.796.237-1.488.706-2.078.5-.619 1.106-.924 1.83-.924.671 0 1.231.264 1.681.8.439.516.66 1.15.66 1.889zm-1.274-.35c0-.322-.118-.607-.35-.854-.237-.248-.5-.371-.793-.371-.332 0-.622.144-.877.429a1.406 1.406 0 0 0-.385.96c0 .083.065.12.19.12a13 13 0 0 0 1.903-.17c.206-.032.312-.07.312-.115zm10.18 3.253c0 .153-.043.227-.126.227-.054 0-.134-.004-.244-.017a2.54 2.54 0 0 0-.248-.02c-.061 0-.153.004-.275.012a4.454 4.454 0 0 1-.274.012c-.076 0-.115-.09-.115-.272 0-.177.008-.445.02-.8.015-.35.019-.618.019-.796 0-.977-.004-1.525-.012-1.637-.027-.396-.103-.672-.225-.824-.137-.161-.385-.244-.743-.244-.225 0-.477.12-.759.35-.293.244-.446.483-.457.718-.016.301-.02.854-.02 1.654 0 .19.004.474.02.854.015.379.023.663.023.853 0 .103-.035.157-.096.157a2.68 2.68 0 0 1-.282-.017 3.398 3.398 0 0 0-.282-.02 3.76 3.76 0 0 0-.255.012 3.67 3.67 0 0 1-.252.012c-.069 0-.107-.057-.107-.169 0-.185.004-.466.015-.837.012-.37.016-.651.016-.837v-1.402c0-.437-.046-.746-.141-.932-.138-.264-.397-.396-.778-.396-.229 0-.496.103-.804.31-.344.222-.515.449-.515.676v1.695c0 .193 0 .486.008.866 0 .383.003.668.003.857 0 .112-.042.17-.125.17h-.996c-.072 0-.11-.05-.11-.157 0-.314.004-.78.008-1.41.003-.627.003-1.097.003-1.407a10.7 10.7 0 0 0-.213-2.115.546.546 0 0 1-.015-.12c0-.053.015-.082.05-.09.129-.013.323-.046.579-.087a5 5 0 0 1 .533-.132l.042-.004c.046 0 .084.136.122.408.038.276.073.412.1.412l.27-.255c.21-.198.42-.359.63-.474.304-.174.61-.26.91-.26.824 0 1.35.367 1.575 1.097a2.82 2.82 0 0 1 .823-.767c.351-.219.698-.33 1.041-.33.66 0 1.117.21 1.373.627.183.313.274.8.274 1.468 0 .127-.004.325-.011.593a21.52 21.52 0 0 0-.012.59c0 .243.008.61.015 1.097.012.49.02.858.02 1.101zm2.455-6.722c0 .475-.244.714-.736.714-.496 0-.744-.24-.744-.714 0-.21.077-.387.23-.527a.729.729 0 0 1 .514-.194.74.74 0 0 1 .518.198.69.69 0 0 1 .218.523zm-.042 1.571c0 .297-.02.747-.05 1.349-.034.602-.05 1.056-.05 1.353 0 .284.008.705.016 1.27.011.56.019.981.019 1.257 0 .083-.034.124-.1.124h-1.044c-.076 0-.114-.078-.114-.235 0-.268.007-.672.019-1.204.011-.536.019-.94.019-1.212 0-.297-.02-.751-.061-1.357a21.069 21.069 0 0 1-.061-1.357c0-.062.038-.099.114-.099.061 0 .16.013.294.029.133.02.236.029.301.029.069 0 .172-.008.305-.029.133-.016.233-.029.301-.029.061 0 .092.037.092.111zm5.787 5.25c0 .082-.038.128-.107.128-.118 0-.293-.004-.53-.004-.232-.004-.408-.009-.53-.009-.06 0-.095-.057-.095-.169 0-.19.004-.474.015-.866.012-.383.02-.676.02-.866 0-.156-.005-.387-.008-.696-.004-.306-.004-.537-.004-.693 0-.442-.061-.75-.18-.932-.14-.215-.404-.326-.792-.326-.176 0-.424.111-.744.326-.335.23-.503.433-.503.61v3.48c0 .095-.034.145-.103.145-.114 0-.286-.004-.515-.004-.228-.004-.4-.009-.514-.009-.077 0-.115-.04-.115-.132 0-.305.008-.762.016-1.377.007-.61.011-1.072.011-1.381a10.142 10.142 0 0 0-.252-2.355c0-.037.023-.066.07-.082.026 0 .228-.038.613-.103.385-.07.587-.104.606-.104.02 0 .034.033.042.095.015.24.057.483.122.726.187-.16.43-.359.732-.594.374-.247.74-.37 1.09-.37.671 0 1.129.21 1.377.634.182.31.274.808.274 1.501 0 .12-.004.301-.011.549-.004.247-.008.433-.008.56 0 .256.004.644.011 1.16.008.51.012.898.012 1.158zm6.237-5.134c0 .016-.004.05-.015.107-.145.883-.214 1.646-.214 2.285 0 .04.046.907.137 2.606l.004.078c.004.116-.042.17-.14.17-.1 0-.249.012-.447.036a3.16 3.16 0 0 1-.446.038c-.069 0-.118-.132-.156-.4-.035-.273-.069-.405-.1-.405-.022 0-.118.075-.29.223a3.174 3.174 0 0 1-.59.425c-.282.152-.564.23-.846.23-.694 0-1.281-.3-1.754-.898-.45-.573-.675-1.241-.675-2.004 0-.854.225-1.567.679-2.124.476-.586 1.101-.878 1.88-.878.544 0 1.02.206 1.429.618.06.074.156.186.286.334a.032.032 0 0 0 .03.017c.023 0 .054-.12.092-.363.042-.248.091-.367.152-.367.096 0 .279.029.542.086.297.07.442.132.442.186zm-1.373 2.425c0-.475-.13-.879-.392-1.22-.275-.368-.626-.55-1.056-.55-.427 0-.786.182-1.072.545a1.913 1.913 0 0 0-.411 1.225c0 .466.137.874.411 1.216.286.359.645.54 1.072.54.419 0 .77-.185 1.052-.552.263-.342.396-.742.396-1.204zm5.307-2.623c0 .425-.03.812-.08 1.163-.011.087-.05.132-.11.132-.073 0-.187-.008-.34-.025a2.763 2.763 0 0 0-.347-.029c-.453 0-.743.14-.869.413-.072.169-.11.515-.11 1.039v.639c0 .214.007.544.022.986.012.44.02.767.02.985 0 .103-.039.157-.123.157-.11 0-.274-.004-.499-.004-.221-.004-.393-.009-.5-.009-.08 0-.121-.045-.121-.144 0-.313.003-.788.011-1.414a75.48 75.48 0 0 0 .015-1.423c0-.953-.08-1.72-.244-2.301-.003-.033-.007-.054-.007-.07 0-.05.023-.078.068-.1l.553-.07c.381-.078.557-.119.53-.119.057 0 .095.116.11.342.02.236.054.351.1.351.004 0 .015-.008.026-.012.145-.103.294-.202.443-.306a1.745 1.745 0 0 1 1.033-.305c.278 0 .42.042.42.124zm8.19 2.623c0 .808-.245 1.497-.733 2.07-.503.59-1.12.886-1.86.886-.744 0-1.365-.292-1.868-.882-.488-.57-.732-1.258-.732-2.066 0-.804.244-1.493.732-2.062.507-.581 1.128-.87 1.868-.87.735 0 1.353.289 1.852.87.496.565.74 1.25.74 2.054zm-1.13.008c0-.47-.133-.87-.403-1.204-.279-.35-.633-.528-1.06-.528-.431 0-.786.173-1.068.524-.27.334-.4.738-.4 1.208 0 .466.133.87.408 1.208.286.359.637.54 1.06.54.423 0 .777-.181 1.06-.54.27-.338.404-.742.404-1.208zm6.611 2.701c0 .082-.034.128-.106.128-.119 0-.298-.004-.53-.004-.237-.004-.408-.009-.53-.009-.065 0-.096-.057-.096-.169 0-.19.004-.474.016-.866.011-.383.015-.676.015-.866 0-.156 0-.387-.004-.696-.004-.306-.008-.537-.008-.693 0-.442-.057-.75-.175-.932-.141-.215-.408-.326-.793-.326-.18 0-.427.111-.743.326-.336.23-.504.433-.504.61v3.48c0 .095-.038.145-.102.145-.115 0-.286-.004-.515-.004-.233-.004-.4-.009-.519-.009-.072 0-.11-.04-.11-.132 0-.305.004-.762.015-1.377.008-.61.011-1.072.011-1.381a10.368 10.368 0 0 0-.251-2.355c0-.037.023-.066.069-.082.026 0 .228-.038.613-.103.385-.07.587-.104.603-.104.019 0 .034.033.042.095.019.24.06.483.122.726.186-.16.434-.359.735-.594.374-.247.74-.37 1.09-.37.672 0 1.13.21 1.373.634.187.31.275.808.275 1.501 0 .12 0 .301-.008.549-.004.247-.008.433-.008.56 0 .256.004.644.012 1.16.007.51.011.898.011 1.158zm8.761-6.924c0 .103-.03.153-.095.153-.103 0-.732-.025-1.903-.074a111.95 111.95 0 0 0-.042 2.837c0 .445.012 1.113.042 2.004.03.886.046 1.554.046 1.996 0 .082-.053.123-.156.123-.065 0-.16-.004-.294-.016a3.738 3.738 0 0 0-.3-.02c-.062 0-.165.008-.294.02-.13.012-.233.016-.294.016-.092 0-.133-.045-.133-.144 0-.441.015-1.1.05-1.988.03-.882.049-1.546.049-1.991 0-.689-.02-1.633-.058-2.837-.922.066-1.6.094-2.032.094-.041 0-.064-.02-.064-.057 0-.07.019-.17.05-.301.041-.17.064-.272.072-.301.007-.136.034-.326.076-.565.019-.05.046-.075.091-.075l.065.005c1.262.082 2.097.12 2.505.12.354 0 .942-.026 1.75-.087.556-.038.785-.054.694-.054.091 0 .145.033.156.103-.008-.041-.011.144-.011.56 0 .055.003.133.015.236.011.107.015.19.015.243zm3.702 1.592c0 .425-.027.812-.08 1.163-.008.087-.046.132-.107.132-.076 0-.19-.008-.34-.025a2.812 2.812 0 0 0-.35-.029c-.45 0-.74.14-.865.413-.073.169-.111.515-.111 1.039v.639c0 .214.008.544.023.986.011.44.019.767.019.985 0 .103-.038.157-.122.157-.11 0-.275-.004-.5-.004-.22-.004-.392-.009-.503-.009-.08 0-.122-.045-.122-.144 0-.313.008-.788.016-1.414.011-.631.011-1.105.011-1.423 0-.953-.076-1.72-.24-2.301-.008-.033-.008-.054-.008-.07 0-.05.023-.078.069-.1l.553-.07c.38-.078.556-.119.53-.119.057 0 .095.116.11.342.02.236.05.351.095.351.008 0 .02-.008.03-.012.146-.103.294-.202.44-.306a1.745 1.745 0 0 1 1.037-.305c.278 0 .415.042.415.124zm5.448 2.623c0 .808-.244 1.497-.732 2.07-.504.59-1.121.886-1.86.886-.748 0-1.366-.292-1.869-.882-.488-.57-.732-1.258-.732-2.066 0-.804.244-1.493.732-2.062.507-.581 1.129-.87 1.868-.87.736 0 1.354.289 1.853.87.492.565.74 1.25.74 2.054zm-1.133.008c0-.47-.133-.87-.4-1.204-.278-.35-.633-.528-1.06-.528-.43 0-.785.173-1.067.524-.27.334-.404.738-.404 1.208 0 .466.137.87.408 1.208.286.359.64.54 1.063.54.423 0 .778-.181 1.06-.54.267-.338.4-.742.4-1.208zm7.251.025c0 .783-.228 1.46-.686 2.037-.48.606-1.075.907-1.788.907a1.67 1.67 0 0 1-1.162-.445c-.15-.149-.298-.301-.45-.454-.02.012-.035.041-.042.09-.004.026-.008.24-.008.652l-.004 1.637c0 .124-.038.186-.122.186-.549 0-.873-.008-.972-.025-.084-.012-.126-.062-.126-.148 0-.5.004-1.241.012-2.231.007-.99.011-1.732.011-2.227a18.65 18.65 0 0 0-.175-2.651c0-.042.019-.07.053-.083.137-.008.336-.029.595-.062.35-.07.549-.103.59-.103.062 0 .1.116.119.35.011.157.02.31.027.462 0 .03.011.062.03.091a.26.26 0 0 0 .088-.082c.5-.557 1.006-.833 1.517-.833.71 0 1.304.297 1.788.899.47.573.705 1.253.705 2.033zm-1.254-.017c0-.466-.133-.874-.4-1.225-.282-.375-.637-.56-1.06-.56-.412 0-.75.193-1.018.577a2.064 2.064 0 0 0-.366 1.216c0 .475.126.879.378 1.23.274.375.625.56 1.052.56.408 0 .75-.194 1.03-.585.258-.363.384-.767.384-1.213zm3.485-4.128c0 .475-.248.714-.74.714-.495 0-.743-.24-.743-.714 0-.21.076-.387.228-.527a.735.735 0 0 1 .515-.194.75.75 0 0 1 .522.198.705.705 0 0 1 .218.523zm-.046 1.571c0 .297-.015.747-.05 1.349-.034.602-.05 1.056-.05 1.353 0 .284.008.705.016 1.27.012.56.02.981.02 1.257 0 .083-.035.124-.1.124h-1.045c-.076 0-.114-.078-.114-.235 0-.268.008-.672.02-1.204a47.3 47.3 0 0 0 .018-1.212c0-.297-.019-.751-.06-1.357a24.335 24.335 0 0 1-.062-1.357c0-.062.038-.099.115-.099.064 0 .16.013.293.029.134.02.237.029.305.029.065 0 .168-.008.301-.029.134-.016.233-.029.301-.029.061 0 .092.037.092.111zm4.811.104c0 .086-.042.276-.122.569-.084.292-.14.44-.171.44-.16-.077-.324-.152-.488-.23a1.27 1.27 0 0 0-.534-.111c-.439 0-.805.173-1.102.523-.29.355-.438.767-.438 1.246 0 .47.148.878.438 1.224.301.355.671.532 1.102.532.236 0 .476-.066.709-.19.233-.127.332-.189.305-.189.046 0 .1.16.156.487.05.292.08.494.08.606 0 .12-.21.235-.629.354-.35.095-.61.145-.777.145-.74 0-1.361-.297-1.868-.895-.496-.577-.748-1.274-.748-2.074 0-.82.244-1.518.732-2.091.504-.586 1.125-.878 1.872-.878.503 0 .96.136 1.376.408.073.05.107.086.107.124zm5.883.012c0 .016-.004.05-.016.107-.144.883-.213 1.646-.213 2.285 0 .04.046.907.137 2.606l.004.078c.004.116-.042.17-.141.17-.1 0-.248.012-.446.036a3.16 3.16 0 0 1-.446.038c-.065 0-.118-.132-.153-.4-.038-.273-.072-.405-.103-.405-.023 0-.118.075-.29.223-.21.186-.407.326-.59.425-.282.152-.565.23-.847.23-.693 0-1.277-.3-1.753-.898-.45-.573-.675-1.241-.675-2.004 0-.854.225-1.567.678-2.124.477-.586 1.102-.878 1.88-.878.545 0 1.022.206 1.43.618.06.074.156.186.286.334a.032.032 0 0 0 .03.017c.023 0 .053-.12.092-.363.041-.248.091-.367.152-.367.095 0 .278.029.541.086.298.07.443.132.443.186zm-1.373 2.425c0-.475-.13-.879-.392-1.22-.275-.368-.626-.55-1.057-.55-.427 0-.785.182-1.07.545a1.913 1.913 0 0 0-.413 1.225c0 .466.138.874.412 1.216.286.359.644.54 1.071.54.424 0 .77-.185 1.053-.552.267-.342.396-.742.396-1.204zm3.591-5.217l-.003.074a71.325 71.325 0 0 0-.115 3.708c0 .457.008 1.146.02 2.066.015.92.022 1.604.022 2.061 0 .091-.03.132-.084.132h-1.025c-.065 0-.096-.04-.096-.132 0-.457 0-1.142.008-2.061.008-.92.012-1.609.012-2.066 0-.421-.02-1.048-.054-1.885a45.172 45.172 0 0 1-.057-1.872c0-.078.038-.12.114-.12.065 0 .16.009.29.017.126.012.221.02.286.02.069 0 .168-.008.301-.02.13-.008.229-.017.29-.017.065 0 .095.033.091.095zm8.898 6.87c0 .062-.015.149-.041.268-.035.149-.054.235-.061.268-.008.14-.035.343-.077.61-.015.07-.06.108-.137.108a1.53 1.53 0 0 1-.202-.025c-.442-.07-1.12-.103-2.043-.103-.26 0-.652.004-1.178.02-.527.017-.92.025-1.178.025-.119 0-.176-.057-.176-.169 0-.433.02-1.08.065-1.95.042-.866.065-1.518.065-1.95 0-.442-.023-1.263-.065-2.467-.008-.309-.03-.77-.061-1.385l-.004-.083c-.004-.086.042-.132.137-.132.252 0 .626.009 1.129.025.5.012.877.02 1.124.02.24 0 .599-.008 1.076-.02a34.17 34.17 0 0 1 1.075-.025c.167 0 .263.058.274.17.073.507.115.824.115.944 0 .09-.042.136-.119.136-.305 0-.766-.02-1.38-.054a24.816 24.816 0 0 0-1.391-.053c-.294 0-.477.04-.553.127-.076.083-.118.293-.118.631v.866c0 .24.007.376.019.413.03.123.122.181.278.181.042 0 .103 0 .18-.004h.182c.702 0 1.33-.012 1.884-.041.217-.008.476-.029.774-.062.072-.008.11.029.11.107 0 .124-.011.314-.038.57-.03.26-.042.449-.042.577 0 .07-.053.107-.16.107-.042 0-.202-.017-.477-.041-.198-.025-.648-.038-1.35-.038-.586 0-.96.009-1.116.025-.145.013-.225.09-.248.243.004-.028.004.12.004.442v.857c0 .4.06.648.175.751.088.078.309.12.667.12l.587-.009c.252 0 .953-.045 2.109-.14l.08-.008c.072-.008.106.045.106.148zm4.568-4.09c0 .086-.038.276-.119.569-.083.292-.144.44-.175.44-.16-.077-.324-.152-.484-.23a1.283 1.283 0 0 0-.534-.111c-.442 0-.808.173-1.102.523a1.887 1.887 0 0 0-.438 1.246c0 .47.145.878.438 1.224.298.355.668.532 1.098.532a1.5 1.5 0 0 0 .71-.19c.232-.127.335-.189.304-.189.046 0 .1.16.157.487.053.292.08.494.08.606 0 .12-.206.235-.625.354-.355.095-.61.145-.778.145-.74 0-1.361-.297-1.868-.895-.496-.577-.747-1.274-.747-2.074 0-.82.244-1.518.732-2.091.499-.586 1.124-.878 1.871-.878.5 0 .961.136 1.373.408.072.05.107.086.107.124zm5.524 2.437c0 .808-.248 1.497-.736 2.07-.5.59-1.117.886-1.86.886-.744 0-1.365-.292-1.865-.882-.488-.57-.736-1.258-.736-2.066 0-.804.248-1.493.736-2.062.507-.581 1.125-.87 1.865-.87.735 0 1.353.289 1.856.87.492.565.74 1.25.74 2.054zm-1.133.008c0-.47-.133-.87-.4-1.204-.282-.35-.633-.528-1.063-.528-.427 0-.782.173-1.064.524-.27.334-.404.738-.404 1.208 0 .466.137.87.408 1.208.286.359.64.54 1.06.54.427 0 .781-.181 1.063-.54.267-.338.4-.742.4-1.208zm8.94-4.73a11.64 11.64 0 0 0-.293.581c-.042.12-.11.293-.21.512-.023.033-.05.053-.084.053l-.518-.21c-.347-.136-.637-.206-.862-.206-.655 0-.987.313-.987.936 0 .346.232.652.694.911.774.437 1.2.689 1.284.755.462.4.69.936.69 1.612 0 .866-.316 1.55-.949 2.05-.568.45-1.27.672-2.1.672-.385 0-.595-.045-.622-.14a9.421 9.421 0 0 0-.095-.643l-.137-.52c-.008-.037-.016-.07-.016-.099 0-.054.027-.083.08-.083.088 0 .218.009.397.03.18.02.313.028.404.028 1.11 0 1.666-.387 1.666-1.163 0-.379-.221-.705-.67-.985-.817-.5-1.236-.763-1.255-.784-.45-.391-.675-.923-.675-1.587 0-.722.217-1.3.652-1.732.427-.417.976-.623 1.655-.623.285 0 .613.05.987.153.404.11.709.243.911.404.02.016.034.04.053.078zm5.357 4.429c0 .289-.115.478-.343.577-.153.062-1.262.173-3.325.343.046.342.221.63.523.87.286.226.594.342.922.342.568 0 1.09-.194 1.56-.586.06-.05.118-.103.175-.148.026 0 .046 0 .053.008.012.008.08.14.202.4.126.264.19.4.19.42 0 .025-.03.07-.087.133-.526.602-1.197.903-2.02.903-.831 0-1.491-.268-1.987-.804-.491-.536-.74-1.25-.74-2.145 0-.796.237-1.488.71-2.078.495-.619 1.105-.924 1.826-.924.671 0 1.231.264 1.681.8.442.516.66 1.15.66 1.889zm-1.274-.35c0-.322-.118-.607-.35-.854-.237-.248-.5-.371-.793-.371-.328 0-.622.144-.877.429a1.406 1.406 0 0 0-.385.96c0 .083.065.12.194.12.53 0 1.163-.058 1.903-.17.206-.032.308-.07.308-.115zm5.018 2.408c0 .082-.008.198-.023.346-.016.181-.027.297-.027.35a.435.435 0 0 1-.02.128.255.255 0 0 1-.098.079c-.294.152-.755.227-1.38.227-.831 0-1.247-.409-1.25-1.23 0-.325.003-.82.014-1.48.012-.66.02-1.154.02-1.48 0-.161-.077-.243-.222-.256-.133 0-.263-.004-.392-.008-.073-.017-.11-.177-.11-.474 0-.112.007-.231.018-.355.012-.095.069-.148.172-.169.088 0 .175-.004.263-.004.164-.008.248-.09.248-.24 0-.156-.004-.391-.012-.709a32.3 32.3 0 0 1-.011-.713c0-.285.05-.425.152-.425.03 0 .362.062 1 .182.083.008.121.053.121.123 0 .174-.011.43-.038.772-.027.338-.038.593-.038.762 0 .116.05.17.145.17h1.296c.061 0 .091.024.091.07 0 .045-.007.12-.022.222a2.134 2.134 0 0 0-.016.231c0 .058 0 .145.004.264.004.12.008.21.008.268 0 .07-.054.112-.153.112-.145 0-.358-.013-.652-.033a9.535 9.535 0 0 0-.648-.03c-.026 0-.05.112-.065.33-.007.277-.011.66-.011 1.16v.861c0 .334.03.565.088.697.084.202.259.301.526.301.11 0 .27-.025.484-.074.213-.054.374-.078.477-.078.038 0 .06.033.06.103zm3.755 0c0 .082-.008.198-.023.346-.015.181-.027.297-.03.35a.788.788 0 0 1-.016.128.275.275 0 0 1-.103.079c-.293.152-.75.227-1.38.227-.827 0-1.247-.409-1.25-1.23 0-.325.007-.82.019-1.48.011-.66.015-1.154.015-1.48 0-.161-.073-.243-.221-.256-.13 0-.263-.004-.39-.008-.075-.017-.113-.177-.113-.474 0-.112.007-.231.022-.355.008-.095.065-.148.172-.169.088 0 .175-.004.263-.004.164-.008.244-.09.244-.24 0-.156-.004-.391-.011-.709-.008-.317-.008-.552-.008-.713 0-.285.05-.425.149-.425.03 0 .366.062 1.002.182.08.008.122.053.122.123 0 .174-.015.43-.038.772a10.69 10.69 0 0 0-.042.762c0 .116.05.17.149.17h1.292c.061 0 .092.024.092.07 0 .045-.008.12-.02.222a1.575 1.575 0 0 0-.018.231c0 .058.003.145.003.264.008.12.008.21.008.268 0 .07-.05.112-.149.112-.144 0-.362-.013-.651-.033a9.726 9.726 0 0 0-.652-.03c-.027 0-.046.112-.061.33-.008.277-.012.66-.012 1.16v.861c0 .334.027.565.084.697.084.202.26.301.526.301a2.4 2.4 0 0 0 .488-.074c.214-.054.37-.078.473-.078.042 0 .065.033.065.103zm2.116-6.982l-.004.074a71.794 71.794 0 0 0-.118 3.708c0 .457.007 1.146.022 2.066.016.92.02 1.604.02 2.061 0 .091-.027.132-.084.132h-1.022c-.065 0-.1-.04-.1-.132 0-.457.005-1.142.012-2.061.008-.92.012-1.609.012-2.066 0-.421-.02-1.048-.054-1.885a45.174 45.174 0 0 1-.057-1.872c0-.078.038-.12.11-.12.065 0 .165.009.29.017.13.012.225.02.29.02.065 0 .168-.008.301-.02.13-.008.225-.017.29-.017.065 0 .095.033.092.095zm5.604 4.924c0 .289-.115.478-.343.577-.157.062-1.262.173-3.325.343.042.342.218.63.522.87.286.226.591.342.923.342.568 0 1.087-.194 1.56-.586.057-.05.114-.103.17-.148.031 0 .05 0 .058.008s.076.14.198.4c.13.264.19.4.19.42 0 .025-.03.07-.083.133-.526.602-1.2.903-2.024.903-.828 0-1.49-.268-1.983-.804-.492-.536-.74-1.25-.74-2.145 0-.796.237-1.488.706-2.078.5-.619 1.106-.924 1.83-.924.67 0 1.231.264 1.681.8.439.516.66 1.15.66 1.889zm-1.277-.35c0-.322-.115-.607-.351-.854-.233-.248-.496-.371-.79-.371-.331 0-.62.144-.876.429-.26.284-.385.606-.385.96 0 .083.06.12.19.12.53 0 1.163-.058 1.903-.17.206-.032.309-.07.309-.115zm10.179 3.253c0 .153-.042.227-.122.227-.054 0-.138-.004-.244-.017a2.51 2.51 0 0 0-.252-.02 4.24 4.24 0 0 0-.27.012 4.715 4.715 0 0 1-.275.012c-.076 0-.115-.09-.115-.272 0-.177.008-.445.02-.8.015-.35.019-.618.019-.796 0-.977-.004-1.525-.012-1.637-.027-.396-.103-.672-.225-.824-.137-.161-.389-.244-.743-.244-.225 0-.48.12-.759.35-.293.244-.446.483-.457.718-.016.301-.023.854-.023 1.654 0 .19.007.474.023.854.015.379.019.663.019.853 0 .103-.03.157-.096.157-.064 0-.16-.004-.282-.017a3.225 3.225 0 0 0-.278-.02 3.76 3.76 0 0 0-.255.012 3.67 3.67 0 0 1-.252.012c-.073 0-.11-.057-.11-.169 0-.185.007-.466.018-.837.012-.37.016-.651.016-.837v-1.402c0-.437-.046-.746-.145-.932-.134-.264-.393-.396-.778-.396-.225 0-.492.103-.8.31-.344.222-.515.449-.515.676v1.695c0 .193 0 .486.004.866.003.383.003.668.003.857 0 .112-.038.17-.122.17h-.998c-.069 0-.107-.05-.107-.157 0-.314 0-.78.004-1.41.003-.627.007-1.097.007-1.407a10.7 10.7 0 0 0-.213-2.115.597.597 0 0 1-.02-.12c0-.053.02-.082.05-.09.134-.013.328-.046.584-.087a4.76 4.76 0 0 1 .533-.132l.042-.004c.042 0 .084.136.122.408.038.276.069.412.1.412 0 0 .087-.086.266-.255.214-.198.423-.359.633-.474.305-.174.606-.26.911-.26.824 0 1.346.367 1.57 1.097.222-.31.497-.565.828-.767.35-.219.698-.33 1.041-.33.66 0 1.117.21 1.372.627.18.313.275.8.275 1.468 0 .127-.004.325-.012.593a25.227 25.227 0 0 0 .004 1.687c.012.49.016.858.016 1.101zm5.6-2.903c0 .289-.114.478-.343.577-.157.062-1.262.173-3.325.343.046.342.222.63.523.87.286.226.594.342.922.342.568 0 1.087-.194 1.56-.586.06-.05.114-.103.171-.148.03 0 .05 0 .057.008.012.008.077.14.202.4.126.264.187.4.187.42 0 .025-.027.07-.084.133-.526.602-1.2.903-2.024.903-.827 0-1.49-.268-1.983-.804-.491-.536-.74-1.25-.74-2.145 0-.796.237-1.488.706-2.078.5-.619 1.106-.924 1.83-.924.671 0 1.231.264 1.681.8.439.516.66 1.15.66 1.889zm-1.273-.35c0-.322-.119-.607-.351-.854-.237-.248-.5-.371-.793-.371-.332 0-.622.144-.877.429a1.406 1.406 0 0 0-.385.96c0 .083.065.12.19.12a13 13 0 0 0 1.903-.17c.206-.032.313-.07.313-.115zm6.751 3.352c0 .082-.034.128-.107.128-.118 0-.297-.004-.53-.004-.232-.004-.407-.009-.53-.009-.06 0-.095-.057-.095-.169 0-.19.004-.474.016-.866.011-.383.019-.676.019-.866 0-.156-.004-.387-.008-.696-.004-.306-.004-.537-.004-.693 0-.442-.06-.75-.175-.932-.145-.215-.412-.326-.797-.326-.175 0-.427.111-.743.326-.336.23-.504.433-.504.61v3.48c0 .095-.034.145-.103.145-.114 0-.285-.004-.514-.004-.229-.004-.4-.009-.515-.009-.076 0-.114-.04-.114-.132 0-.305.004-.762.015-1.377.008-.61.011-1.072.011-1.381a10.368 10.368 0 0 0-.251-2.355c0-.037.023-.066.068-.082.027 0 .23-.038.614-.103.385-.07.587-.104.603-.104.022 0 .034.033.042.095.019.24.06.483.122.726.19-.16.434-.359.735-.594.378-.247.74-.37 1.09-.37.672 0 1.13.21 1.373.634.187.31.278.808.278 1.501 0 .12-.003.301-.011.549-.004.247-.008.433-.008.56 0 .256.004.644.012 1.16.007.51.011.898.011 1.158zm4.007-.944a4.8 4.8 0 0 1-.02.346c-.018.181-.026.297-.033.35 0 .07-.008.112-.016.128a.255.255 0 0 1-.099.079c-.293.152-.75.227-1.38.227-.83 0-1.246-.409-1.25-1.23 0-.325.004-.82.015-1.48s.019-1.154.019-1.48c0-.161-.076-.243-.221-.256-.134 0-.263-.004-.393-.008-.072-.017-.114-.177-.114-.474 0-.112.008-.231.023-.355.011-.095.068-.148.171-.169.088 0 .176-.004.263-.004.164-.008.248-.09.248-.24 0-.156-.004-.391-.011-.709a32.293 32.293 0 0 1-.012-.713c0-.285.05-.425.149-.425.034 0 .366.062 1.003.182.08.008.122.053.122.123 0 .174-.012.43-.038.772-.027.338-.039.593-.039.762 0 .116.05.17.145.17h1.296c.061 0 .092.024.092.07 0 .045-.008.12-.023.222a2.134 2.134 0 0 0-.015.231c0 .058 0 .145.004.264.003.12.007.21.007.268 0 .07-.05.112-.152.112-.145 0-.359-.013-.652-.033a9.635 9.635 0 0 0-.648-.03c-.027 0-.05.112-.065.33-.008.277-.011.66-.011 1.16v.861c0 .334.03.565.087.697.084.202.26.301.526.301.11 0 .271-.025.484-.074.214-.054.374-.078.477-.078.042 0 .061.033.061.103zm3.271-.73c0 .577-.21 1.039-.637 1.385-.389.318-.861.475-1.418.475-.213 0-.335-.005-.362-.017-.061-.029-.092-.124-.092-.28 0-.087-.011-.215-.03-.384a4.025 4.025 0 0 1-.03-.375c0-.05.034-.087.099-.1a.503.503 0 0 1 .194 0c.114.01.168.017.164.017.675 0 1.014-.226 1.014-.676 0-.21-.149-.404-.442-.581-.48-.289-.755-.462-.827-.532-.294-.272-.443-.631-.443-1.077 0-.577.202-1.03.606-1.356.366-.289.828-.433 1.388-.433.05 0 .088.024.11.074.024.054.07.21.134.47.069.264.1.425.1.478 0 .042-.035.07-.104.083-.228.033-.457.066-.69.095-.274.082-.411.243-.411.486 0 .174.14.35.43.528.427.26.698.446.809.561.293.301.438.689.438 1.159zM32.972 86.195c0 .607-.414.92-1.264.92-.52 0-1.31-.046-2.395-.136-1.075-.087-1.864-.132-2.384-.132-.55 0-1.37.045-2.445.132-1.07.09-1.875.136-2.395.136-.732 0-1.089-.328-1.089-.992 0-3.297.148-8.248.448-14.887.3-6.624.448-11.59.448-14.914 0-3.21-.148-8.015-.448-14.443-.3-6.417-.448-11.237-.448-14.443 0-.724.345-1.078 1.013-1.078.55 0 1.386.041 2.532.132 1.131.087 1.997.132 2.578.132.52 0 1.31-.045 2.353-.132 1.055-.09 1.845-.132 2.365-.132.759 0 1.13.294 1.13.87 0 3.222-.117 8.072-.356 14.545-.235 6.462-.357 11.308-.357 14.549 0 3.323.122 8.305.357 14.944.24 6.636.357 11.617.357 14.93zm44.121-55.447c-.577.96-1.381 2.408-2.395 4.344-.33.905-.892 2.175-1.696 3.829-.179.252-.418.384-.703.384.03 0-1.366-.516-4.213-1.552-2.828-1.033-5.166-1.553-7-1.553-5.344 0-8.023 2.336-8.023 7.009 0 2.585 1.875 4.864 5.625 6.801 6.3 3.248 9.785 5.129 10.457 5.63 3.75 2.973 5.625 6.978 5.625 12.035 0 6.474-2.573 11.572-7.724 15.298C62.412 86.327 56.71 88 49.95 88c-3.143 0-4.824-.34-5.063-1.036-.122-1.108-.372-2.706-.79-4.82-.224-.855-.596-2.155-1.086-3.884a2.268 2.268 0 0 1-.136-.743c0-.4.224-.606.657-.606.698 0 1.772.075 3.214.222 1.462.15 2.547.222 3.28.222 9.053 0 13.577-2.897 13.577-8.678 0-2.837-1.814-5.29-5.465-7.359-6.654-3.757-10.052-5.708-10.2-5.855-3.678-2.943-5.507-6.904-5.507-11.87 0-5.38 1.769-9.684 5.329-12.92C51.214 27.552 55.697 26 61.208 26c2.323 0 5.003.388 8.024 1.142 3.291.84 5.762 1.846 7.433 3.04.132.121.28.298.428.566zm47.34 3.798c0 .754-.269 1.123-.789 1.123-.82 0-5.97-.177-15.471-.531-.24 8.81-.357 15.86-.357 21.184 0 3.308.118 8.29.357 14.944.24 6.636.357 11.617.357 14.93 0 .606-.418.919-1.264.919-.524 0-1.31-.046-2.4-.136-1.07-.087-1.874-.132-2.425-.132-.523 0-1.324.045-2.399.132-1.07.09-1.875.136-2.398.136-.73 0-1.086-.358-1.086-1.082 0-3.297.133-8.233.402-14.842.27-6.59.403-11.56.403-14.87 0-5.146-.148-12.212-.448-21.183-7.52.47-13.042.708-16.542.708-.345 0-.524-.147-.524-.43 0-.53.137-1.27.402-2.26.33-1.27.524-2.024.581-2.246.061-1.021.27-2.427.627-4.213.148-.37.387-.561.743-.561l.524.041c10.287.595 17.077.89 20.368.89 2.908 0 7.671-.208 14.268-.637 4.51-.28 6.389-.43 5.63-.43.759 0 1.172.268 1.263.784-.06-.31-.09 1.081-.09 4.201 0 .385.045.957.136 1.756.087.799.133 1.39.133 1.805zM171 78.361c0 .46-.121 1.123-.345 1.997a181.13 181.13 0 0 1-.49 2.009c-.076 1.036-.285 2.573-.611 4.57-.133.517-.52.78-1.131.78-.285 0-.835-.056-1.651-.177-3.576-.516-9.114-.783-16.607-.783-2.13 0-5.314.06-9.588.18-4.274.117-7.477.178-9.592.178-.968 0-1.442-.415-1.442-1.259 0-3.237.178-8.086.535-14.575.357-6.477.535-11.338.535-14.575 0-3.282-.178-9.416-.535-18.407-.06-2.302-.224-5.75-.49-10.347l-.045-.607c-.03-.663.342-.987 1.131-.987 2.038 0 5.094.056 9.17.177 4.07.102 7.137.162 9.16.162 1.95 0 4.87-.06 8.756-.162 3.887-.12 6.806-.177 8.757-.177 1.37 0 2.114.414 2.217 1.255.611 3.783.926 6.15.926 7.065 0 .667-.315.99-.953.99-2.474 0-6.225-.131-11.231-.399-5.018-.267-8.784-.399-11.315-.399-2.384 0-3.887.328-4.513.96-.627.638-.938 2.205-.938 4.734v6.458c0 1.775.046 2.796.133 3.09.254.9 1.013 1.345 2.266 1.345.342 0 .831-.015 1.473-.045h1.488c5.69 0 10.798-.102 15.323-.309 1.773-.06 3.872-.207 6.286-.445.61-.06.907.208.907.784 0 .93-.103 2.351-.327 4.273-.223 1.907-.33 3.339-.33 4.3 0 .535-.429.783-1.31.783-.34 0-1.635-.102-3.87-.294-1.622-.177-5.285-.267-10.974-.267-4.794 0-7.835.06-9.099.177-1.161.075-1.833.682-2.012 1.805.03-.207.046.9.046 3.312v6.383c0 2.988.463 4.85 1.4 5.603.714.607 2.532.905 5.436.905l4.794-.046c2.038 0 7.743-.354 17.142-1.066l.653-.041c.58-.06.865.308.865 1.092zm73-47.613c-.57.96-1.359 2.408-2.353 4.344-.32.905-.875 2.175-1.664 3.829-.175.252-.41.384-.685.384.026 0-1.344-.516-4.136-1.552-2.773-1.033-5.067-1.553-6.86-1.553-5.246 0-7.875 2.336-7.875 7.009 0 2.585 1.84 4.864 5.521 6.801 6.176 3.248 9.594 5.129 10.253 5.63 3.682 2.973 5.52 6.978 5.52 12.035 0 6.474-2.527 11.572-7.579 15.298C229.6 86.327 224.005 88 217.375 88c-3.083 0-4.732-.34-4.966-1.036-.116-1.108-.365-2.706-.775-4.82-.22-.855-.584-2.155-1.064-3.884a2.298 2.298 0 0 1-.13-.743c0-.4.215-.606.64-.606.688 0 1.738.075 3.157.222 1.429.15 2.497.222 3.212.222 8.879 0 13.32-2.897 13.32-8.678 0-2.837-1.783-5.29-5.36-7.359-6.53-3.757-9.858-5.708-10.007-5.855-3.608-2.943-5.402-6.904-5.402-11.87 0-5.38 1.739-9.684 5.227-12.92 3.391-3.12 7.784-4.673 13.19-4.673 2.278 0 4.906.388 7.87 1.142 3.23.84 5.654 1.846 7.289 3.04.13.121.279.298.424.566" fill="#FFF"/><path d="M203 81.79c0 .19-.158.464-.468.81-3.162 3.6-7.082 5.4-11.757 5.4-4.863 0-8.768-1.748-11.685-5.238-2.732-3.259-4.09-7.32-4.09-12.204 0-4.878 1.385-8.965 4.165-12.246 2.959-3.538 6.86-5.312 11.72-5.312 4.924 0 8.727 1.633 11.425 4.903.26.335.392.62.392.84 0 .27-.434 1.072-1.298 2.401-.864 1.333-1.385 2-1.57 2-.207 0-.705-.389-1.486-1.172-.955-.958-1.86-1.674-2.705-2.157-1.397-.787-2.94-1.177-4.626-1.177-3.215 0-5.713 1.2-7.497 3.608-1.596 2.16-2.393 4.87-2.393 8.148 0 3.267.789 6.002 2.366 8.211 1.785 2.476 4.279 3.708 7.475 3.708 1.592 0 3.128-.393 4.607-1.169.973-.505 1.97-1.232 2.973-2.171.849-.776 1.305-1.17 1.388-1.17.098 0 .63.628 1.604 1.893.97 1.27 1.46 1.964 1.46 2.094" fill="#92D050"/><path d="M190.571 21.155c.28-.384.816-.016.456.674-2.135 4.084-3.099 7.643-3.247 10.845 2.635-.325 5.242-1.556 7.78-4.875.185-.29.549-.192.409.05-2.24 3.76-5.098 5.296-8.209 6.037.088 4.962 2.135 9.057 4.702 12.922-1.123-.031-2.415.02-3.946.192-2.883-8.054-4.506-16.176 2.055-25.845" fill="#5C4A31"/><path d="M196.364 12c.9 1.912 1.465 7.73-2.767 9l1.972-6.956-2.793 6.74c-1.971-2.184.026-7.41 3.588-8.784" fill="#6CAD26"/><path d="M192.022 43c6.389.126 11.94 2.954 14.978 7.12-3.34-2.847-8.207-4.739-13.69-5.011l-.283-.454A55.578 55.578 0 0 1 192.022 43zm-4.146 2.373C182.413 46.2 177.778 48.655 175 52c2.128-4.23 6.667-7.46 12.242-8.581.203.655.413 1.307.634 1.954z" fill="#5F793D"/><path d="M204 21.261c-.466 1.764-3.25 5.922-6.599 4.417l4.997-3.503L197 25.08c-.06-2.53 4.016-4.879 6.999-3.818" fill="#92D050"/><path d="M197 30.48l6.945 1.236-6.791-1.93c2.012-1.76 7.261-.403 8.846 2.471-1.811.856-7.48 1.66-9-1.777z" fill="#5F793D"/><path d="M198.638 41c-1.8-.535-5.96-3.44-4.222-6.635l3.362 5.03L195.056 34c2.625.06 4.84 4.141 3.582 7M177 35.701c.493-1.78 3.322-5.94 6.615-4.343l-5.012 3.45 5.397-2.84c.014 2.57-4.066 4.87-7 3.732" fill="#6CAD26"/><path d="M175 22.81c1.79-.893 7.414-1.785 9 1.662l-6.941-1.15 6.796 1.85c-1.965 1.8-7.222.51-8.855-2.363" fill="#92D050"/><path d="M183.37 14c1.8.538 5.961 3.452 4.208 6.64l-3.354-5.038L186.936 21c-2.634-.067-4.837-4.15-3.566-7" fill="#5F793D"/><path d="M190.04 11c.65.808 1.723 3.626.127 4.97L190 12.158 189.792 16c-1.136-.77-1.047-3.717.249-5" fill="#92D050"/><path d="M203 16.018c.036 1.234-1.012 4.41-3.536 3.934l2.648-3.083-3.032 2.755c-.536-1.664 1.724-3.846 3.92-3.606" fill="#5F793D"/><path d="M208 27.947c-.769.675-3.528 1.832-4.953.285l3.8-.289-3.847-.085c.704-1.157 3.653-1.16 5 .089" fill="#6CAD26"/><path d="M203.954 41c-1.289-.04-4.522-1.216-3.868-3.6l3.036 2.699-2.665-3.05c1.76-.415 3.882 1.869 3.497 3.951M179 40.979c-.022-1.24 1.042-4.428 3.548-3.926l-2.656 3.08 3.033-2.74c.519 1.676-1.746 3.846-3.925 3.586" fill="#92D050"/><path d="M173 27.977c.804-.657 3.613-1.742 4.97-.157l-3.812.188 3.842.187c-.752 1.143-3.704 1.068-5-.218" fill="#5F793D"/><path d="M178 16.019c1.115-.11 4.119.235 3.996 1.656l-3.117-1.23 2.86 1.466c-1.44.412-3.688-.672-3.739-1.892" fill="#6CAD26"/><path fill="#FFF" d="M15 103h230v-4H15z"/><text font-family="Roboto-Regular, Roboto" font-size="36" fill="#FFF" transform="translate(-2 -4)"><tspan x="0" y="33">5</tspan></text><text font-family="Roboto-Regular, Roboto" font-size="12" fill="#FFF" transform="translate(-2 -4)"><tspan x="22" y="13">th</tspan></text></g></svg>